SplineFontDB: 3.0
FontName: AftaSerifThin
FullName: Afta Serif Thin
FamilyName: Afta Serif Thin
Weight: Book
Copyright: Copyright (c) 2010 by Oriol Esparraguera Font. All rights reserved.
Version: 1.000
ItalicAngle: 0
UnderlinePosition: -75
UnderlineWidth: 50
Ascent: 800
Descent: 200
sfntRevision: 0x00010000
LayerCount: 2
Layer: 0 1 "Back"  1
Layer: 1 1 "Fore"  0
XUID: [1021 288 713564382 9940062]
FSType: 0
OS2Version: 3
OS2_WeightWidthSlopeOnly: 0
OS2_UseTypoMetrics: 1
CreationTime: 1287078300
ModificationTime: 1304694650
PfmFamily: 17
TTFWeight: 400
TTFWidth: 5
LineGap: 0
VLineGap: 0
Panose: 2 0 5 3 0 0 0 2 0 4
OS2TypoAscent: 185
OS2TypoAOffset: 1
OS2TypoDescent: -34
OS2TypoDOffset: 1
OS2TypoLinegap: 0
OS2WinAscent: 0
OS2WinAOffset: 1
OS2WinDescent: 0
OS2WinDOffset: 1
HheadAscent: 0
HheadAOffset: 1
HheadDescent: 0
HheadDOffset: 1
OS2SubXSize: 204
OS2SubYSize: 204
OS2SubXOff: 0
OS2SubYOff: 286
OS2SupXSize: 204
OS2SupYSize: 204
OS2SupXOff: 0
OS2SupYOff: 286
OS2StrikeYSize: 50
OS2StrikeYPos: 250
OS2Vendor: 'AFTA'
OS2CodePages: 00000011.00000000
OS2UnicodeRanges: 8000002f.40000042.00000000.00000000
Lookup: 258 0 0 "'kern' Horizontal Kerning in Latin lookup 0"  {"'kern' Horizontal Kerning in Latin lookup 0 subtable"  } ['kern' ('latn' <'dflt' > ) ]
DEI: 91125
TtTable: prep
PUSHW_1
 511
SCANCTRL
PUSHB_1
 4
SCANTYPE
EndTTInstrs
TtTable: fpgm
PUSHW_1
 0
FDEF
MPPEM
PUSHW_1
 9
LT
IF
PUSHB_2
 1
 1
INSTCTRL
EIF
PUSHW_1
 511
SCANCTRL
PUSHW_1
 68
SCVTCI
PUSHW_2
 9
 3
SDS
SDB
ENDF
PUSHW_1
 1
FDEF
DUP
DUP
RCVT
ROUND[Black]
WCVTP
PUSHB_1
 1
ADD
ENDF
PUSHW_1
 2
FDEF
PUSHW_1
 1
LOOPCALL
POP
ENDF
PUSHW_1
 3
FDEF
DUP
GC[cur]
PUSHB_1
 3
CINDEX
GC[cur]
GT
IF
SWAP
EIF
DUP
ROLL
DUP
ROLL
MD[grid]
ABS
ROLL
DUP
GC[cur]
DUP
ROUND[Grey]
SUB
ABS
PUSHB_1
 4
CINDEX
GC[cur]
DUP
ROUND[Grey]
SUB
ABS
GT
IF
SWAP
NEG
ROLL
EIF
MDAP[rnd]
DUP
PUSHB_1
 0
GTEQ
IF
ROUND[Black]
DUP
PUSHB_1
 0
EQ
IF
POP
PUSHB_1
 64
EIF
ELSE
ROUND[Black]
DUP
PUSHB_1
 0
EQ
IF
POP
PUSHB_1
 64
NEG
EIF
EIF
MSIRP[no-rp0]
ENDF

StartChar: exclam
Encoding: 33 33 4
Width: 284
Flags: W
LayerCount: 2
Fore
SplineSet
154 223 m 1,0,-1
 133 223 l 1,1,-1
 108 517 l 1,2,-1
 108 730 l 1,3,-1
 179 730 l 1,4,-1
 179 517 l 1,5,-1
 154 223 l 1,0,-1
104 83 m 1,6,-1
 189 83 l 1,7,-1
 189 -1 l 1,8,-1
 104 -1 l 1,9,-1
 104 83 l 1,6,-1
EndSplineSet
EndChar

StartChar: quotedbl
Encoding: 34 34 5
Width: 455
Flags: W
LayerCount: 2
Fore
SplineSet
293 493 m 1,0,-1
 293 730 l 1,1,-1
 339 730 l 1,2,-1
 339 493 l 1,3,-1
 293 493 l 1,0,-1
187 730 m 1,4,-1
 187 493 l 1,5,-1
 141 493 l 1,6,-1
 141 730 l 1,7,-1
 187 730 l 1,4,-1
EndSplineSet
EndChar

StartChar: numbersign
Encoding: 35 35 6
Width: 594
Flags: W
LayerCount: 2
Fore
SplineSet
257 459 m 1,0,1
 252 423 252 423 242 368 c 0,2,3
 232 314 232 314 223 255 c 1,4,-1
 390 255 l 1,5,6
 398 309 398 309 407 357 c 128,-1,7
 416 405 416 405 424 459 c 1,8,-1
 257 459 l 1,0,1
217 224 m 1,9,10
 195 76 195 76 181 1 c 1,11,-1
 135 1 l 1,12,-1
 172 224 l 1,13,-1
 56 224 l 1,14,-1
 56 255 l 1,15,-1
 178 255 l 1,16,-1
 212 459 l 1,17,-1
 82 459 l 1,18,-1
 82 490 l 1,19,-1
 217 490 l 1,20,-1
 253 710 l 1,21,-1
 300 710 l 1,22,-1
 262 490 l 1,23,-1
 430 490 l 1,24,-1
 466 710 l 1,25,-1
 513 710 l 1,26,-1
 475 490 l 1,27,-1
 570 490 l 1,28,-1
 570 459 l 1,29,-1
 469 459 l 1,30,-1
 435 255 l 1,31,-1
 538 255 l 1,32,-1
 538 224 l 1,33,-1
 432 224 l 1,34,35
 419 167 419 167 412.5 112.5 c 128,-1,36
 406 58 406 58 394 1 c 1,37,-1
 349 1 l 1,38,-1
 385 224 l 1,39,-1
 217 224 l 1,9,10
EndSplineSet
EndChar

StartChar: dollar
Encoding: 36 36 7
Width: 605
Flags: W
LayerCount: 2
Fore
SplineSet
339 27 m 1,0,1
 405 44 405 44 451.5 86 c 128,-1,2
 498 128 498 128 498 173 c 128,-1,3
 498 218 498 218 479 245 c 0,4,5
 439 303 439 303 339 344 c 1,6,-1
 339 27 l 1,0,1
308 709 m 1,7,8
 202 689 202 689 162 616 c 0,9,10
 148 592 148 592 149 563 c 1,11,12
 149 510 149 510 194 472.5 c 128,-1,13
 239 435 239 435 308 409 c 1,14,-1
 308 709 l 1,7,8
339 751 m 1,15,16
 481 743 481 743 553 704 c 1,17,-1
 553 654 l 1,18,19
 455 701 455 701 339 709 c 1,20,-1
 339 402 l 1,21,22
 382 387 382 387 424 369 c 0,23,24
 578 304 578 304 577 174 c 0,25,26
 576 88 576 88 498 36 c 0,27,28
 438 -4 438 -4 339 -19 c 1,29,-1
 339 -119 l 1,30,-1
 308 -119 l 1,31,-1
 308 -20 l 1,32,33
 215 -16 215 -16 155 3 c 128,-1,34
 95 22 95 22 69 40 c 1,35,-1
 69 105 l 1,36,37
 180 31 180 31 308 28 c 1,38,-1
 308 350 l 1,39,40
 191 384 191 384 130 433.5 c 128,-1,41
 69 483 69 483 69 557.5 c 128,-1,42
 69 632 69 632 132 685.5 c 128,-1,43
 195 739 195 739 308 751 c 1,44,-1
 308 820 l 1,45,-1
 339 820 l 1,46,-1
 339 751 l 1,15,16
EndSplineSet
EndChar

StartChar: percent
Encoding: 37 37 8
Width: 1020
Flags: W
LayerCount: 2
Fore
SplineSet
930 322 m 0,0,1
 960 275 960 275 963 183 c 1,2,3
 962 64 962 64 910 20 c 0,4,5
 876 -10 876 -10 805 -10 c 256,6,7
 734 -10 734 -10 699 20 c 0,8,9
 646 65 646 65 644 183 c 1,10,11
 646 278 646 278 682 330.5 c 128,-1,12
 718 383 718 383 804.5 383.5 c 128,-1,13
 891 384 891 384 930 322 c 0,0,1
756 14 m 0,14,15
 778 6 778 6 806 6 c 0,16,17
 865 6 865 6 894.5 46.5 c 128,-1,18
 924 87 924 87 924 186 c 128,-1,19
 924 285 924 285 896.5 325 c 128,-1,20
 869 365 869 365 806.5 365 c 128,-1,21
 744 365 744 365 714 323 c 128,-1,22
 684 281 684 281 684 179 c 0,23,24
 684 39 684 39 756 14 c 0,14,15
858 740 m 1,25,-1
 296 -19 l 1,26,-1
 245 -19 l 1,27,-1
 807 740 l 1,28,-1
 858 740 l 1,25,-1
228 360 m 0,29,30
 250 353 250 353 276 353 c 0,31,32
 333 353 333 353 363 392 c 128,-1,33
 393 431 393 431 393 525 c 0,34,35
 393 669 393 669 322 695 c 0,36,37
 300 703 300 703 274 703 c 0,38,39
 215 703 215 703 184 662.5 c 128,-1,40
 153 622 153 622 153 522 c 0,41,42
 153 384 153 384 228 360 c 0,29,30
275 332 m 0,43,44
 115 332 115 332 112 525 c 1,45,46
 115 620 115 620 151 673 c 128,-1,47
 187 726 187 726 273.5 726 c 128,-1,48
 360 726 360 726 400 664 c 0,49,50
 429 619 429 619 433 525 c 1,51,52
 429 406 429 406 375 362 c 0,53,54
 337 332 337 332 275 332 c 0,43,44
EndSplineSet
EndChar

StartChar: ampersand
Encoding: 38 38 9
Width: 759
Flags: W
LayerCount: 2
Fore
SplineSet
269 499 m 1,0,1
 247 591 247 591 247 621 c 0,2,3
 248 678 248 678 298 706 c 0,4,5
 336 727 336 727 405 728 c 1,6,7
 480 728 480 728 523 702.5 c 128,-1,8
 566 677 566 677 566 614 c 0,9,10
 566 596 566 596 558 548 c 1,11,12
 663 530 663 530 709.5 473.5 c 128,-1,13
 756 417 756 417 756 306 c 0,14,15
 756 230 756 230 727.5 168 c 128,-1,16
 699 106 699 106 631 56 c 1,17,18
 700 26 700 26 741 26 c 0,19,20
 822 26 822 26 897 67 c 1,21,-1
 897 14 l 1,22,23
 843 -16 843 -16 738 -16 c 0,24,25
 698 -16 698 -16 661 -7.5 c 128,-1,26
 624 1 624 1 579 29 c 1,27,28
 474 -18 474 -18 343 -18 c 0,29,30
 335 -18 335 -18 327 -18 c 0,31,32
 104 -18 104 -18 60 138 c 0,33,34
 46 188 46 188 46 250 c 0,35,36
 46 369 46 369 98.5 425 c 128,-1,37
 151 481 151 481 269 499 c 1,0,1
275 471 m 1,38,39
 234 461 234 461 203 448.5 c 128,-1,40
 172 436 172 436 152 414 c 0,41,42
 112 369 112 369 112 247.5 c 128,-1,43
 112 126 112 126 163 75 c 128,-1,44
 214 24 214 24 317 24 c 128,-1,45
 420 24 420 24 537 57 c 1,46,47
 444 146 444 146 381.5 252.5 c 128,-1,48
 319 359 319 359 275 471 c 1,38,39
548 515 m 1,49,50
 512 409 512 409 424 263 c 1,51,52
 494 158 494 158 534 120 c 0,53,54
 550 104 550 104 572 86 c 1,55,56
 630 114 630 114 659.5 167 c 128,-1,57
 689 220 689 220 689 315 c 128,-1,58
 689 410 689 410 657.5 449.5 c 128,-1,59
 626 489 626 489 548 515 c 1,49,50
518 598 m 0,60,61
 518 684 518 684 421 684 c 0,62,63
 350 684 350 684 321 667 c 128,-1,64
 292 650 292 650 292 598 c 0,65,66
 292 526 292 526 370 374 c 0,67,68
 390 334 390 334 408 306 c 1,69,70
 466 420 466 420 483 461 c 0,71,72
 518 546 518 546 518 598 c 0,60,61
EndSplineSet
EndChar

StartChar: quotesingle
Encoding: 39 39 10
Width: 286
Flags: W
LayerCount: 2
Fore
SplineSet
130 493 m 1,0,-1
 130 730 l 1,1,-1
 175 730 l 1,2,-1
 175 493 l 1,3,-1
 130 493 l 1,0,-1
EndSplineSet
EndChar

StartChar: parenleft
Encoding: 40 40 11
Width: 315
Flags: W
LayerCount: 2
Fore
SplineSet
138 269 m 0,0,1
 138 73 138 73 295 -213 c 1,2,-1
 266 -213 l 1,3,4
 152 -80 152 -80 92 100 c 0,5,6
 66 180 66 180 65 258 c 1,7,8
 65 397 65 397 121.5 525 c 128,-1,9
 178 653 178 653 266 753 c 1,10,-1
 302 753 l 1,11,12
 202 600 202 600 156 416 c 0,13,14
 138 343 138 343 138 269 c 0,0,1
EndSplineSet
EndChar

StartChar: parenright
Encoding: 41 41 12
Width: 308
Flags: W
LayerCount: 2
Fore
SplineSet
58 753 m 1,0,1
 260 503 260 503 260 269 c 0,2,3
 260 79 260 79 126 -123 c 0,4,5
 104 -157 104 -157 85.5 -180 c 128,-1,6
 67 -203 67 -203 59 -213 c 1,7,-1
 28 -213 l 1,8,9
 105 -65 105 -65 132 8 c 0,10,11
 187 156 187 156 187 277 c 128,-1,12
 187 398 187 398 123 556 c 0,13,14
 81 661 81 661 22 753 c 1,15,-1
 58 753 l 1,0,1
EndSplineSet
EndChar

StartChar: asterisk
Encoding: 42 42 13
Width: 329
Flags: W
LayerCount: 2
Fore
SplineSet
63 523 m 1,0,-1
 52 544 l 1,1,-1
 158 597 l 1,2,-1
 52 650 l 1,3,-1
 63 671 l 1,4,-1
 165 617 l 1,5,-1
 165 731 l 1,6,-1
 190 731 l 1,7,-1
 190 617 l 1,8,-1
 290 671 l 1,9,-1
 301 650 l 1,10,-1
 196 597 l 1,11,-1
 301 544 l 1,12,-1
 290 523 l 1,13,-1
 190 577 l 1,14,-1
 190 462 l 1,15,-1
 165 462 l 1,16,-1
 165 577 l 1,17,-1
 63 523 l 1,0,-1
EndSplineSet
EndChar

StartChar: plus
Encoding: 43 43 14
Width: 600
Flags: W
LayerCount: 2
Fore
SplineSet
331 509 m 1,0,-1
 331 274 l 1,1,-1
 567 274 l 1,2,-1
 567 232 l 1,3,-1
 331 232 l 1,4,-1
 331 1 l 1,5,-1
 286 1 l 1,6,-1
 286 232 l 1,7,-1
 59 232 l 1,8,-1
 59 274 l 1,9,-1
 286 274 l 1,10,-1
 286 509 l 1,11,-1
 331 509 l 1,0,-1
EndSplineSet
EndChar

StartChar: comma
Encoding: 44 44 15
Width: 278
Flags: W
LayerCount: 2
Fore
SplineSet
193 84 m 1,0,1
 201 26 201 26 201 -17 c 0,2,3
 201 -99 201 -99 170.5 -139.5 c 128,-1,4
 140 -180 140 -180 92 -187 c 1,5,-1
 92 -152 l 1,6,7
 161 -145 161 -145 165 -52 c 0,8,9
 166 -26 166 -26 166 0 c 1,10,-1
 106 0 l 1,11,-1
 106 84 l 1,12,-1
 193 84 l 1,0,1
EndSplineSet
EndChar

StartChar: hyphen
Encoding: 45 45 16
Width: 398
Flags: W
LayerCount: 2
Fore
SplineSet
348 304 m 1,0,-1
 348 253 l 1,1,-1
 67 253 l 1,2,-1
 67 304 l 1,3,-1
 348 304 l 1,0,-1
EndSplineSet
EndChar

StartChar: period
Encoding: 46 46 17
Width: 271
Flags: W
LayerCount: 2
Fore
SplineSet
106 83 m 1,0,-1
 191 83 l 1,1,-1
 191 -1 l 1,2,-1
 106 -1 l 1,3,-1
 106 83 l 1,0,-1
EndSplineSet
EndChar

StartChar: slash
Encoding: 47 47 18
Width: 347
Flags: W
LayerCount: 2
Fore
SplineSet
310 753 m 1,0,-1
 357 753 l 1,1,-1
 53 -19 l 1,2,3
 42 -19 42 -19 28.5 -19.5 c 128,-1,4
 15 -20 15 -20 6 -20 c 1,5,-1
 310 753 l 1,0,-1
EndSplineSet
EndChar

StartChar: zero
Encoding: 48 48 19
Width: 670
Flags: W
LayerCount: 2
Fore
SplineSet
565 350 m 1,0,1
 565 678 565 678 351 678 c 0,2,3
 248 678 248 678 196 606 c 0,4,5
 136 522 136 522 135 341 c 1,6,7
 135 25 135 25 353 25 c 1,8,9
 502 26 502 26 548 198 c 0,10,11
 564 260 564 260 565 350 c 1,0,1
251 709 m 128,-1,13
 302 723 302 723 341.5 723 c 128,-1,14
 381 723 381 723 413 718 c 128,-1,15
 445 713 445 713 476 699 c 0,16,17
 545 668 545 668 588.5 584 c 128,-1,18
 632 500 632 500 632 351 c 128,-1,19
 632 202 632 202 582 112 c 0,20,21
 511 -15 511 -15 353 -16 c 0,22,23
 247 -16 247 -16 177 41.5 c 128,-1,24
 107 99 107 99 80 210 c 0,25,26
 66 268 66 268 66 367 c 128,-1,27
 66 466 66 466 91.5 539.5 c 128,-1,28
 117 613 117 613 158.5 654 c 128,-1,12
 200 695 200 695 251 709 c 128,-1,13
EndSplineSet
EndChar

StartChar: one
Encoding: 49 49 20
Width: 433
Flags: W
LayerCount: 2
Fore
SplineSet
264 40 m 1,0,-1
 343 21 l 1,1,-1
 343 0 l 1,2,-1
 119 0 l 1,3,-1
 119 21 l 1,4,-1
 198 40 l 1,5,-1
 198 673 l 1,6,7
 156 669 156 669 113 651 c 1,8,-1
 113 682 l 1,9,10
 130 695 130 695 148.5 704.5 c 128,-1,11
 167 714 167 714 184 727 c 1,12,-1
 264 727 l 1,13,-1
 264 40 l 1,0,-1
EndSplineSet
EndChar

StartChar: two
Encoding: 50 50 21
Width: 601
Flags: W
LayerCount: 2
Fore
SplineSet
77 525 m 1,0,-1
 68 631 l 1,1,2
 122 685 122 685 201 713 c 0,3,4
 238 726 238 726 290 726 c 0,5,6
 395 726 395 726 452.5 672.5 c 128,-1,7
 510 619 510 619 510 542 c 128,-1,8
 510 465 510 465 467 405.5 c 128,-1,9
 424 346 424 346 331 301 c 1,10,11
 136 203 136 203 126 48 c 1,12,-1
 482 48 l 1,13,-1
 501 128 l 1,14,-1
 523 128 l 1,15,-1
 533 0 l 1,16,-1
 43 0 l 1,17,18
 48 193 48 193 208 299 c 0,19,20
 256 331 256 331 319 363 c 128,-1,21
 382 395 382 395 414 441 c 128,-1,22
 446 487 446 487 446 537 c 0,23,24
 446 628 446 628 358 664 c 0,25,26
 325 678 325 678 284 678 c 0,27,28
 179 678 179 678 112 592 c 1,29,30
 108 575 108 575 105.5 558.5 c 128,-1,31
 103 542 103 542 98 525 c 1,32,-1
 77 525 l 1,0,-1
EndSplineSet
EndChar

StartChar: three
Encoding: 51 51 22
Width: 640
Flags: W
LayerCount: 2
Fore
SplineSet
73 661 m 1,0,1
 208 727 208 727 304 727 c 0,2,3
 419 727 419 727 485.5 685.5 c 128,-1,4
 552 644 552 644 552 561 c 0,5,6
 552 492 552 492 509.5 445.5 c 128,-1,7
 467 399 467 399 404 393 c 1,8,9
 491 381 491 381 545 330 c 128,-1,10
 599 279 599 279 599 202 c 0,11,12
 599 111 599 111 516 47 c 128,-1,13
 433 -17 433 -17 297 -17 c 0,14,15
 126 -17 126 -17 52 20 c 1,16,-1
 60 134 l 1,17,-1
 81 134 l 1,18,-1
 98 58 l 1,19,20
 212 24 212 24 284 24 c 128,-1,21
 356 24 356 24 400 44 c 0,22,23
 480 82 480 82 504 150 c 0,24,25
 514 180 514 180 514.5 203.5 c 128,-1,26
 515 227 515 227 502.5 254.5 c 128,-1,27
 490 282 490 282 465 304 c 0,28,29
 407 357 407 357 314 357 c 2,30,-1
 229 357 l 1,31,-1
 229 405 l 1,32,-1
 314 405 l 2,33,34
 402 405 402 405 439.5 444.5 c 128,-1,35
 477 484 477 484 477 542 c 128,-1,36
 477 600 477 600 437.5 639.5 c 128,-1,37
 398 679 398 679 319 679 c 128,-1,38
 240 679 240 679 118 627 c 1,39,40
 115 610 115 610 110 592 c 128,-1,41
 105 574 105 574 101 557 c 1,42,-1
 80 555 l 1,43,-1
 73 661 l 1,0,1
EndSplineSet
EndChar

StartChar: four
Encoding: 52 52 23
Width: 696
Flags: W
LayerCount: 2
Fore
SplineSet
435 244 m 1,0,-1
 435 674 l 1,1,2
 210 404 210 404 80 244 c 1,3,-1
 435 244 l 1,0,-1
47 263 m 1,4,-1
 440 727 l 1,5,-1
 502 727 l 1,6,-1
 502 244 l 1,7,-1
 665 244 l 1,8,-1
 665 201 l 1,9,-1
 502 201 l 1,10,-1
 502 41 l 1,11,-1
 584 21 l 1,12,-1
 584 0 l 1,13,-1
 354 0 l 1,14,-1
 353 21 l 1,15,-1
 434 40 l 1,16,-1
 435 201 l 1,17,-1
 47 201 l 1,18,-1
 47 263 l 1,4,-1
EndSplineSet
EndChar

StartChar: five
Encoding: 53 53 24
Width: 640
Flags: W
LayerCount: 2
Fore
SplineSet
593 715 m 1,0,-1
 581 597 l 1,1,-1
 561 597 l 1,2,-1
 542 676 l 1,3,-1
 177 676 l 1,4,5
 170 617 170 617 162 562 c 128,-1,6
 154 507 154 507 148 447 c 1,7,8
 230 483 230 483 299 483 c 0,9,10
 434 483 434 483 515.5 420.5 c 128,-1,11
 597 358 597 358 597 244.5 c 128,-1,12
 597 131 597 131 517 65.5 c 128,-1,13
 437 0 437 0 304 0 c 128,-1,14
 171 0 171 0 82 40 c 0,15,16
 62 49 62 49 54 54 c 1,17,-1
 62 165 l 1,18,-1
 83 165 l 1,19,-1
 100 93 l 1,20,21
 179 57 179 57 258 43 c 0,22,23
 286 38 286 38 311 38 c 0,24,25
 418 38 418 38 476 110 c 0,26,27
 524 170 524 170 524.5 250.5 c 128,-1,28
 525 331 525 331 472.5 386.5 c 128,-1,29
 420 442 420 442 311 442 c 0,30,31
 240 442 240 442 125 400 c 1,32,-1
 71 432 l 1,33,34
 105 657 105 657 117 715 c 1,35,-1
 593 715 l 1,0,-1
EndSplineSet
EndChar

StartChar: six
Encoding: 54 54 25
Width: 622
Flags: W
LayerCount: 2
Fore
SplineSet
143 219 m 0,0,1
 143 150 143 150 190 93 c 1,2,3
 267 37 267 37 323 30 c 1,4,5
 386 30 386 30 428 57 c 0,6,7
 515 112 515 112 516 221 c 0,8,9
 516 318 516 318 444 370 c 0,10,11
 407 397 407 397 351.5 397 c 128,-1,12
 296 397 296 397 257 370 c 128,-1,13
 218 343 218 343 192.5 310 c 128,-1,14
 167 277 167 277 155 249 c 128,-1,15
 143 221 143 221 143 219 c 0,0,1
532 626 m 1,16,17
 433 677 433 677 346 677 c 0,18,19
 243 676 243 676 181 584 c 0,20,21
 128 504 128 504 128 395 c 0,22,23
 128 384 128 384 128 373 c 128,-1,24
 128 362 128 362 128.5 348.5 c 128,-1,25
 129 335 129 335 129.5 318 c 128,-1,26
 130 301 130 301 131 277 c 1,27,28
 147 347 147 347 214.5 396 c 128,-1,29
 282 445 282 445 357 445 c 128,-1,30
 432 445 432 445 485.5 411.5 c 128,-1,31
 539 378 539 378 565 328.5 c 128,-1,32
 591 279 591 279 591 224 c 0,33,34
 591 162 591 162 560 109.5 c 128,-1,35
 529 57 529 57 470.5 23.5 c 128,-1,36
 412 -10 412 -10 338 -10 c 128,-1,37
 264 -10 264 -10 216 8 c 0,38,39
 62 63 62 63 62 356 c 0,40,41
 62 550 62 550 146 645 c 0,42,43
 218 727 218 727 346 727 c 0,44,45
 408 727 408 727 453 711.5 c 128,-1,46
 498 696 498 696 524 684 c 128,-1,47
 550 672 550 672 577 660 c 1,48,-1
 570 554 l 1,49,-1
 549 554 l 1,50,-1
 532 626 l 1,16,17
EndSplineSet
EndChar

StartChar: seven
Encoding: 55 55 26
Width: 633
Flags: W
LayerCount: 2
Fore
SplineSet
167 673 m 1,0,-1
 155 559 l 1,1,-1
 134 559 l 1,2,-1
 94 710 l 1,3,-1
 585 710 l 1,4,5
 585 666 585 666 574 638 c 128,-1,6
 563 610 563 610 539 584 c 1,7,-1
 375 389 l 1,8,9
 318 308 318 308 318 210 c 2,10,-1
 318 1 l 1,11,-1
 250 1 l 1,12,-1
 250 210 l 2,13,14
 250 304 250 304 294 372 c 0,15,16
 324 419 324 419 407.5 523.5 c 128,-1,17
 491 628 491 628 527 673 c 1,18,-1
 167 673 l 1,0,-1
EndSplineSet
EndChar

StartChar: eight
Encoding: 56 56 27
Width: 613
Flags: W
LayerCount: 2
Fore
SplineSet
349 445 m 1,0,1
 354 446 354 446 375 455 c 128,-1,2
 396 464 396 464 420 480 c 0,3,4
 480 521 480 521 480 567 c 0,5,6
 480 630 480 630 424 658 c 0,7,8
 380 680 380 680 317 680 c 128,-1,9
 254 680 254 680 208 656 c 0,10,11
 152 627 152 627 151.5 578.5 c 128,-1,12
 151 530 151 530 230 490 c 1,13,14
 271 468 271 468 349 445 c 1,0,1
280 402 m 1,15,16
 205 379 205 379 160.5 326 c 128,-1,17
 116 273 116 273 116 192 c 0,18,19
 116 112 116 112 181 68 c 0,20,21
 237 31 237 31 318.5 30.5 c 128,-1,22
 400 30 400 30 459 75 c 128,-1,23
 518 120 518 120 518 195 c 0,24,25
 518 286 518 286 445 340.5 c 128,-1,26
 372 395 372 395 280 402 c 1,15,16
224 416 m 1,27,28
 136 453 136 453 96 512 c 0,29,30
 80 537 80 537 79 567 c 1,31,32
 79 643 79 643 140 684.5 c 128,-1,33
 201 726 201 726 315 726 c 128,-1,34
 429 726 429 726 489 678.5 c 128,-1,35
 549 631 549 631 549 560 c 0,36,37
 549 506 549 506 514.5 475 c 128,-1,38
 480 444 480 444 408 418 c 1,39,40
 492 378 492 378 534 332 c 0,41,42
 588 272 588 272 589 195 c 1,43,44
 589 93 589 93 513 38 c 128,-1,45
 437 -17 437 -17 315 -17 c 0,46,47
 127 -16 127 -16 70 94 c 0,48,49
 49 134 49 134 49 188 c 128,-1,50
 49 242 49 242 69 279 c 0,51,52
 121 375 121 375 224 416 c 1,27,28
EndSplineSet
EndChar

StartChar: nine
Encoding: 57 57 28
Width: 622
Flags: W
LayerCount: 2
Fore
SplineSet
506 497 m 0,0,1
 506 566 506 566 456.5 626 c 128,-1,2
 407 686 407 686 326 686 c 0,3,4
 262 686 262 686 220 659 c 0,5,6
 133 603 133 603 133 495 c 0,7,8
 133 398 133 398 205 346 c 0,9,10
 242 319 242 319 297.5 319 c 128,-1,11
 353 319 353 319 392 346 c 128,-1,12
 431 373 431 373 456.5 406 c 128,-1,13
 482 439 482 439 494 467 c 128,-1,14
 506 495 506 495 506 497 c 0,0,1
117 90 m 1,15,16
 249 42 249 42 303 39 c 1,17,18
 406 40 406 40 468 132 c 0,19,20
 521 212 521 212 521 321 c 0,21,22
 521 332 521 332 521 343 c 128,-1,23
 521 354 521 354 520.5 367.5 c 128,-1,24
 520 381 520 381 519.5 398 c 128,-1,25
 519 415 519 415 518 439 c 1,26,27
 502 368 502 368 435.5 319.5 c 128,-1,28
 369 271 369 271 293 271 c 128,-1,29
 217 271 217 271 163.5 304.5 c 128,-1,30
 110 338 110 338 84 387.5 c 128,-1,31
 58 437 58 437 58 492 c 0,32,33
 58 554 58 554 89 606.5 c 128,-1,34
 120 659 120 659 178.5 692.5 c 128,-1,35
 237 726 237 726 311 726 c 0,36,37
 386 726 386 726 434 708 c 0,38,39
 588 653 588 653 587 360 c 1,40,41
 588 166 588 166 504 71 c 0,42,43
 432 -11 432 -11 303 -11 c 0,44,45
 241 -11 241 -11 196 4.5 c 128,-1,46
 151 20 151 20 125 32 c 128,-1,47
 99 44 99 44 72 56 c 1,48,-1
 79 162 l 1,49,-1
 100 162 l 1,50,-1
 117 90 l 1,15,16
EndSplineSet
EndChar

StartChar: colon
Encoding: 58 58 29
Width: 301
Flags: W
LayerCount: 2
Fore
SplineSet
117 83 m 1,0,-1
 201 83 l 1,1,-1
 201 -1 l 1,2,-1
 117 -1 l 1,3,-1
 117 83 l 1,0,-1
117 433 m 1,4,-1
 117 517 l 1,5,-1
 201 517 l 1,6,-1
 201 433 l 1,7,-1
 117 433 l 1,4,-1
EndSplineSet
EndChar

StartChar: semicolon
Encoding: 59 59 30
Width: 307
Flags: W
LayerCount: 2
Fore
SplineSet
203 84 m 1,0,1
 211 26 211 26 211 -17 c 0,2,3
 211 -97 211 -97 180 -138 c 128,-1,4
 149 -179 149 -179 103 -186 c 1,5,-1
 103 -152 l 1,6,7
 171 -144 171 -144 175 -53 c 0,8,9
 176 -27 176 -27 176 0 c 1,10,-1
 117 0 l 1,11,-1
 117 84 l 1,12,-1
 203 84 l 1,0,1
117 433 m 1,13,-1
 117 517 l 1,14,-1
 201 517 l 1,15,-1
 201 433 l 1,16,-1
 117 433 l 1,13,-1
EndSplineSet
EndChar

StartChar: less
Encoding: 60 60 31
Width: 621
Flags: W
LayerCount: 2
Fore
SplineSet
590 458 m 1,0,-1
 84 250 l 1,1,-1
 599 49 l 1,2,-1
 599 -2 l 1,3,-1
 59 224 l 1,4,-1
 59 278 l 1,5,-1
 590 511 l 1,6,-1
 590 458 l 1,0,-1
EndSplineSet
EndChar

StartChar: equal
Encoding: 61 61 32
Width: 598
Flags: W
LayerCount: 2
Fore
SplineSet
560 169 m 1,0,-1
 560 128 l 1,1,-1
 59 128 l 1,2,-1
 59 169 l 1,3,-1
 560 169 l 1,0,-1
560 378 m 1,4,-1
 560 335 l 1,5,-1
 59 335 l 1,6,-1
 59 378 l 1,7,-1
 560 378 l 1,4,-1
EndSplineSet
EndChar

StartChar: greater
Encoding: 62 62 33
Width: 618
Flags: W
LayerCount: 2
Fore
SplineSet
54 511 m 1,0,-1
 585 278 l 1,1,-1
 585 224 l 1,2,-1
 45 -2 l 1,3,-1
 45 49 l 1,4,-1
 560 250 l 1,5,-1
 54 458 l 1,6,-1
 54 511 l 1,0,-1
EndSplineSet
EndChar

StartChar: question
Encoding: 63 63 34
Width: 601
Flags: W
LayerCount: 2
Fore
SplineSet
229 84 m 1,0,-1
 314 84 l 1,1,-1
 314 0 l 1,2,-1
 229 0 l 1,3,-1
 229 84 l 1,0,-1
135 672 m 1,4,5
 146 554 146 554 147 533 c 1,6,-1
 126 533 l 1,7,-1
 86 717 l 1,8,9
 174 749 174 749 278 749 c 0,10,11
 452 750 452 750 506 654 c 0,12,13
 525 620 525 620 525 580 c 0,14,15
 524 515 524 515 488 469 c 0,16,17
 463 437 463 437 411 397 c 1,18,19
 352 346 352 346 333 324 c 0,20,21
 291 274 291 274 286 221 c 1,22,-1
 246 221 l 1,23,24
 254 326 254 326 324 390 c 1,25,26
 342 408 342 408 360 421 c 1,27,28
 406 458 406 458 425 482 c 0,29,30
 454 521 454 521 454 574.5 c 128,-1,31
 454 628 454 628 412.5 663 c 128,-1,32
 371 698 371 698 278 698 c 0,33,34
 213 698 213 698 135 672 c 1,4,5
EndSplineSet
EndChar

StartChar: at
Encoding: 64 64 35
Width: 817
Flags: W
LayerCount: 2
Fore
SplineSet
503 395 m 1,0,1
 497 409 497 409 486.5 427 c 128,-1,2
 476 445 476 445 451 463 c 1,3,4
 434 472 434 472 415 472 c 128,-1,5
 396 472 396 472 376 450 c 0,6,7
 344 416 344 416 344 366 c 0,8,9
 344 274 344 274 413 274 c 0,10,11
 433 274 433 274 456 289 c 128,-1,12
 479 304 479 304 497 324 c 1,13,-1
 503 395 l 1,0,1
454 28 m 0,14,15
 623 28 623 28 789 123 c 1,16,-1
 789 38 l 1,17,18
 635 -18 635 -18 438.5 -18 c 128,-1,19
 242 -18 242 -18 141 89 c 0,20,21
 49 187 49 187 49 352 c 0,22,23
 49 359 49 359 49 366 c 0,24,25
 49 542 49 542 157.5 647 c 128,-1,26
 266 752 266 752 432 752 c 128,-1,27
 598 752 598 752 702 671.5 c 128,-1,28
 806 591 806 591 806 441 c 0,29,30
 806 348 806 348 765 286 c 0,31,32
 715 210 715 210 613 210 c 0,33,34
 559 210 559 210 529 230.5 c 128,-1,35
 499 251 499 251 494 279 c 1,36,37
 482 258 482 258 455.5 240.5 c 128,-1,38
 429 223 429 223 394 223 c 0,39,40
 278 223 278 223 278 365 c 0,41,42
 278 430 278 430 314 478 c 128,-1,43
 350 526 350 526 397.5 526 c 128,-1,44
 445 526 445 526 484 490 c 0,45,46
 500 476 500 476 513 453 c 1,47,-1
 529 518 l 1,48,-1
 579 500 l 1,49,50
 559 368 559 368 559 313 c 0,51,52
 559 252 559 252 619 252 c 0,53,54
 673 252 673 252 701.5 307 c 128,-1,55
 730 362 730 362 730 437.5 c 128,-1,56
 730 513 730 513 704 561 c 0,57,58
 678 608 678 608 636 640 c 0,59,60
 551 704 551 704 432 704 c 0,61,62
 337 704 337 704 260 660 c 128,-1,63
 183 616 183 616 147 508 c 0,64,65
 128 450 128 450 128 365 c 0,66,67
 128 28 128 28 454 28 c 0,14,15
EndSplineSet
EndChar

StartChar: A
Encoding: 65 65 36
Width: 673
Flags: W
LayerCount: 2
Fore
SplineSet
208 314 m 1,0,-1
 484 314 l 1,1,-1
 350 677 l 1,2,-1
 208 314 l 1,0,-1
189 20 m 1,3,-1
 190 0 l 1,4,-1
 -39 0 l 1,5,-1
 -38 20 l 1,6,-1
 32 37 l 1,7,-1
 284 676 l 1,8,9
 246 685 246 685 204 696 c 1,10,-1
 204 716 l 1,11,-1
 404 716 l 1,12,-1
 643 37 l 1,13,14
 660 34 660 34 678.5 29 c 128,-1,15
 697 24 697 24 714 20 c 1,16,-1
 715 0 l 1,17,-1
 484 0 l 1,18,-1
 485 21 l 1,19,-1
 569 40 l 1,20,-1
 497 272 l 1,21,-1
 199 272 l 1,22,-1
 105 41 l 1,23,-1
 189 20 l 1,3,-1
EndSplineSet
EndChar

StartChar: B
Encoding: 66 66 37
Width: 705
Flags: W
LayerCount: 2
Fore
SplineSet
169 33 m 1,0,-1
 320 26 l 2,1,2
 330 26 330 26 340 26 c 0,3,4
 538 26 538 26 574 128 c 0,5,6
 586 162 586 162 585 202 c 1,7,8
 585 280 585 280 527.5 323.5 c 128,-1,9
 470 367 470 367 374 367 c 2,10,-1
 169 367 l 1,11,-1
 169 33 l 1,0,-1
520 539 m 0,12,13
 520 673 520 673 336 673 c 2,14,-1
 169 673 l 1,15,-1
 169 411 l 1,16,-1
 327 411 l 2,17,18
 429 411 429 411 474.5 441 c 128,-1,19
 520 471 520 471 520 539 c 0,12,13
335 716 m 2,20,21
 473 716 473 716 534.5 668 c 128,-1,22
 596 620 596 620 596 539 c 0,23,24
 596 483 596 483 559 443 c 128,-1,25
 522 403 522 403 433 390 c 1,26,27
 590 380 590 380 644 280 c 0,28,29
 664 244 664 244 664 200 c 0,30,31
 664 110 664 110 598 54 c 0,32,33
 521 -12 521 -12 374 -13 c 1,34,35
 279 -9 279 -9 194.5 -7 c 128,-1,36
 110 -5 110 -5 26 0 c 1,37,-1
 26 22 l 1,38,-1
 103 40 l 1,39,-1
 105 677 l 1,40,-1
 26 695 l 1,41,-1
 26 716 l 1,42,-1
 335 716 l 2,20,21
EndSplineSet
EndChar

StartChar: C
Encoding: 67 67 38
Width: 700
Flags: W
LayerCount: 2
Fore
SplineSet
628 699 m 1,0,-1
 617 573 l 1,1,-1
 598 573 l 1,2,-1
 581 658 l 1,3,4
 558 665 558 665 540 671 c 128,-1,5
 522 677 522 677 497 683 c 128,-1,6
 472 689 472 689 443 689 c 128,-1,7
 414 689 414 689 384 682 c 0,8,9
 354 676 354 676 322 660 c 0,10,11
 248 624 248 624 203 557 c 0,12,13
 147 474 147 474 145 356 c 1,14,15
 152 217 152 217 216 136 c 0,16,17
 265 74 265 74 342 47 c 1,18,19
 409 31 409 31 436 30 c 1,20,21
 534 30 534 30 635 108 c 1,22,-1
 635 39 l 1,23,24
 586 6 586 6 500 -13 c 0,25,26
 469 -20 469 -20 436 -21 c 1,27,28
 260 -21 260 -21 164.5 85 c 128,-1,29
 69 191 69 191 69 357.5 c 128,-1,30
 69 524 69 524 165 627.5 c 128,-1,31
 261 731 261 731 436 731 c 0,32,33
 532 731 532 731 628 699 c 1,0,-1
EndSplineSet
EndChar

StartChar: D
Encoding: 68 68 39
Width: 702
Flags: W
LayerCount: 2
Fore
SplineSet
168 74 m 2,0,1
 168 50 168 50 171 46.5 c 128,-1,2
 174 43 174 43 179 43 c 2,3,4
 179 43 179 43 283 43 c 0,5,6
 327 43 327 43 377.5 58 c 128,-1,7
 428 73 428 73 471 109 c 0,8,9
 571 193 571 193 571 354 c 0,10,11
 571 440 571 440 542.5 500.5 c 128,-1,12
 514 561 514 561 471 599 c 128,-1,13
 428 637 428 637 377.5 654.5 c 128,-1,14
 327 672 327 672 288 672 c 2,15,-1
 228 672 l 2,16,17
 185 672 185 672 178 669.5 c 128,-1,18
 171 667 171 667 168 664 c 1,19,-1
 168 74 l 2,0,1
24 694 m 1,20,-1
 24 715 l 1,21,-1
 281 715 l 2,22,23
 382 715 382 715 452 679 c 128,-1,24
 522 643 522 643 566 588.5 c 128,-1,25
 610 534 610 534 630 471 c 128,-1,26
 650 408 650 408 650 354 c 256,27,28
 650 300 650 300 633 237.5 c 128,-1,29
 616 175 616 175 574 122.5 c 128,-1,30
 532 70 532 70 461 35 c 128,-1,31
 390 0 390 0 282 0 c 2,32,-1
 24 0 l 1,33,-1
 24 21 l 1,34,-1
 102 39 l 1,35,-1
 102 677 l 1,36,-1
 24 694 l 1,20,-1
EndSplineSet
EndChar

StartChar: E
Encoding: 69 69 40
Width: 588
Flags: W
LayerCount: 2
Fore
SplineSet
474 673 m 1,0,-1
 169 673 l 1,1,-1
 169 385 l 1,2,-1
 429 385 l 1,3,-1
 429 342 l 1,4,-1
 169 342 l 1,5,-1
 169 43 l 1,6,-1
 507 43 l 1,7,-1
 524 120 l 1,8,-1
 543 120 l 1,9,-1
 543 0 l 1,10,-1
 27 0 l 1,11,-1
 27 21 l 1,12,-1
 105 39 l 1,13,-1
 106 676 l 1,14,-1
 27 694 l 1,15,-1
 27 715 l 1,16,-1
 521 715 l 1,17,-1
 510 575 l 1,18,-1
 491 575 l 1,19,-1
 474 673 l 1,0,-1
EndSplineSet
EndChar

StartChar: F
Encoding: 70 70 41
Width: 599
Flags: W
LayerCount: 2
Fore
SplineSet
567 715 m 1,0,-1
 560 574 l 1,1,-1
 538 574 l 1,2,-1
 521 671 l 1,3,-1
 170 671 l 1,4,-1
 170 386 l 1,5,-1
 417 386 l 1,6,-1
 417 336 l 1,7,-1
 170 336 l 1,8,-1
 170 38 l 1,9,-1
 249 20 l 1,10,-1
 249 0 l 1,11,-1
 29 0 l 1,12,-1
 29 22 l 1,13,-1
 106 40 l 1,14,-1
 106 675 l 1,15,-1
 29 693 l 1,16,-1
 29 715 l 1,17,-1
 567 715 l 1,0,-1
EndSplineSet
EndChar

StartChar: G
Encoding: 71 71 42
Width: 814
Flags: W
LayerCount: 2
Fore
SplineSet
439 -20 m 0,0,1
 63 -20 63 -20 63 359 c 0,2,3
 63 530 63 530 162 631 c 128,-1,4
 261 732 261 732 436 732 c 0,5,6
 534 732 534 732 601 718.5 c 128,-1,7
 668 705 668 705 697 695 c 1,8,-1
 687 574 l 1,9,-1
 666 574 l 1,10,-1
 649 655 l 1,11,12
 576 687 576 687 434 687 c 1,13,14
 316 681 316 681 232 606 c 1,15,16
 138 520 138 520 138 343 c 0,17,18
 138 204 138 204 206 122 c 0,19,20
 258 60 258 60 342 40 c 0,21,22
 385 30 385 30 446 30 c 0,23,24
 594 30 594 30 687 91 c 1,25,-1
 687 265 l 1,26,27
 645 273 645 273 609 282 c 1,28,-1
 609 301 l 1,29,-1
 752 301 l 1,30,-1
 752 37 l 1,31,32
 581 -20 581 -20 439 -20 c 0,0,1
EndSplineSet
EndChar

StartChar: H
Encoding: 72 72 43
Width: 770
Flags: W
LayerCount: 2
Fore
SplineSet
102 677 m 1,0,-1
 27 694 l 1,1,-1
 27 716 l 1,2,-1
 252 716 l 1,3,-1
 252 695 l 1,4,-1
 174 677 l 1,5,-1
 174 382 l 1,6,-1
 626 382 l 1,7,-1
 626 676 l 1,8,-1
 546 696 l 1,9,-1
 546 716 l 1,10,-1
 769 716 l 1,11,-1
 769 695 l 1,12,-1
 692 678 l 1,13,-1
 691 40 l 1,14,-1
 769 22 l 1,15,-1
 769 0 l 1,16,-1
 546 0 l 1,17,-1
 546 21 l 1,18,-1
 624 39 l 1,19,-1
 626 337 l 1,20,-1
 174 337 l 1,21,-1
 174 38 l 1,22,-1
 252 21 l 1,23,-1
 252 0 l 1,24,-1
 27 0 l 1,25,-1
 27 21 l 1,26,-1
 102 39 l 1,27,-1
 102 677 l 1,0,-1
EndSplineSet
EndChar

StartChar: I
Encoding: 73 73 44
Width: 279
Flags: W
LayerCount: 2
Fore
SplineSet
114 677 m 1,0,-1
 40 694 l 1,1,-1
 40 716 l 1,2,-1
 254 716 l 1,3,-1
 254 695 l 1,4,-1
 178 677 l 1,5,-1
 178 38 l 1,6,-1
 255 21 l 1,7,-1
 255 0 l 1,8,-1
 39 0 l 1,9,-1
 39 21 l 1,10,-1
 114 39 l 1,11,-1
 114 677 l 1,0,-1
EndSplineSet
EndChar

StartChar: J
Encoding: 74 74 45
Width: 292
Flags: W
LayerCount: 2
Fore
SplineSet
71 -168 m 1,0,1
 130 -119 130 -119 130 -23 c 2,2,-1
 130 677 l 1,3,-1
 50 695 l 1,4,-1
 50 716 l 1,5,-1
 273 716 l 1,6,-1
 273 695 l 1,7,-1
 194 677 l 1,8,-1
 191 -23 l 2,9,10
 191 -173 191 -173 71 -205 c 1,11,-1
 71 -168 l 1,0,1
EndSplineSet
EndChar

StartChar: K
Encoding: 75 75 46
Width: 663
Flags: W
LayerCount: 2
Fore
SplineSet
105 676 m 1,0,1
 52 688 52 688 26 695 c 1,2,-1
 26 716 l 1,3,-1
 248 716 l 1,4,-1
 248 695 l 1,5,-1
 171 678 l 1,6,-1
 170 297 l 1,7,-1
 487 672 l 1,8,-1
 391 695 l 1,9,-1
 391 716 l 1,10,-1
 628 716 l 1,11,-1
 628 695 l 1,12,-1
 561 679 l 1,13,-1
 357 439 l 1,14,-1
 623 37 l 1,15,16
 640 34 640 34 658 29 c 128,-1,17
 676 24 676 24 693 20 c 1,18,-1
 693 0 l 1,19,-1
 475 0 l 1,20,-1
 475 20 l 1,21,-1
 550 35 l 1,22,-1
 320 386 l 1,23,-1
 170 218 l 1,24,-1
 170 39 l 1,25,-1
 248 21 l 1,26,-1
 248 0 l 1,27,-1
 26 0 l 1,28,-1
 26 21 l 1,29,-1
 104 39 l 1,30,-1
 105 676 l 1,0,1
EndSplineSet
EndChar

StartChar: L
Encoding: 76 76 47
Width: 555
Flags: W
LayerCount: 2
Fore
SplineSet
494 46 m 1,0,1
 494 47 494 47 511 144 c 1,2,-1
 532 144 l 1,3,-1
 539 0 l 1,4,-1
 28 0 l 1,5,-1
 27 21 l 1,6,-1
 105 39 l 1,7,-1
 106 677 l 1,8,-1
 27 695 l 1,9,-1
 27 716 l 1,10,-1
 249 716 l 1,11,-1
 249 695 l 1,12,-1
 172 678 l 1,13,-1
 171 68 l 2,14,15
 171 51 171 51 174 48.5 c 128,-1,16
 177 46 177 46 196 46 c 2,17,-1
 494 46 l 1,0,1
EndSplineSet
EndChar

StartChar: M
Encoding: 77 77 48
Width: 896
Flags: W
LayerCount: 2
Fore
SplineSet
23 0 m 1,0,-1
 23 21 l 1,1,-1
 101 39 l 1,2,-1
 101 677 l 1,3,-1
 22 695 l 1,4,-1
 22 716 l 1,5,-1
 200 716 l 1,6,-1
 441 179 l 2,7,8
 452 156 452 156 467 156 c 128,-1,9
 482 156 482 156 492 179 c 2,10,-1
 728 716 l 1,11,-1
 897 716 l 1,12,-1
 897 695 l 1,13,-1
 819 677 l 1,14,-1
 819 40 l 1,15,-1
 900 21 l 1,16,-1
 899 0 l 1,17,-1
 674 0 l 1,18,-1
 674 21 l 1,19,-1
 753 39 l 1,20,-1
 755 643 l 1,21,-1
 504 84 l 1,22,-1
 430 84 l 1,23,-1
 166 645 l 1,24,-1
 166 38 l 1,25,-1
 248 21 l 1,26,-1
 248 0 l 1,27,-1
 23 0 l 1,0,-1
EndSplineSet
EndChar

StartChar: N
Encoding: 78 78 49
Width: 741
Flags: W
LayerCount: 2
Fore
SplineSet
22 0 m 1,0,-1
 23 21 l 1,1,-1
 100 39 l 1,2,-1
 101 677 l 1,3,-1
 24 695 l 1,4,-1
 24 716 l 1,5,-1
 186 716 l 1,6,-1
 595 77 l 1,7,-1
 595 716 l 1,8,-1
 738 716 l 1,9,-1
 738 695 l 1,10,-1
 660 677 l 1,11,-1
 660 38 l 1,12,-1
 739 21 l 1,13,-1
 739 0 l 1,14,-1
 584 0 l 1,15,-1
 167 653 l 1,16,-1
 166 40 l 1,17,18
 219 28 219 28 245 21 c 1,19,-1
 246 0 l 1,20,-1
 22 0 l 1,0,-1
EndSplineSet
EndChar

StartChar: O
Encoding: 79 79 50
Width: 844
Flags: W
LayerCount: 2
Fore
SplineSet
153.5 495.5 m 128,-1,1
 135 439 135 439 135 355 c 128,-1,2
 135 271 135 271 154 213 c 0,3,4
 173 154 173 154 202 118 c 0,5,6
 252 55 252 55 335 35 c 0,7,8
 376 25 376 25 410 25 c 128,-1,9
 444 25 444 25 471 26.5 c 128,-1,10
 498 28 498 28 532 38 c 0,11,12
 620 62 620 62 672 124 c 1,13,14
 742 210 742 210 742 358.5 c 128,-1,15
 742 507 742 507 671 592 c 0,16,17
 620 653 620 653 532 676 c 0,18,19
 490 687 490 687 455.5 687 c 128,-1,20
 421 687 421 687 394.5 685.5 c 128,-1,21
 368 684 368 684 334.5 674.5 c 128,-1,22
 301 665 301 665 266 645 c 128,-1,23
 231 625 231 625 201.5 588.5 c 128,-1,0
 172 552 172 552 153.5 495.5 c 128,-1,1
434 731 m 1,24,25
 630 728 630 728 720 634 c 128,-1,26
 810 540 810 540 810 356 c 0,27,28
 810 91 810 91 608 9 c 0,29,30
 536 -20 536 -20 433 -20 c 0,31,32
 236 -20 236 -20 144 84 c 0,33,34
 61 177 61 177 59 356 c 1,35,36
 59 540 59 540 157.5 634 c 128,-1,37
 256 728 256 728 434 731 c 1,24,25
EndSplineSet
EndChar

StartChar: P
Encoding: 80 80 51
Width: 636
Flags: W
LayerCount: 2
Fore
SplineSet
170 348 m 1,0,-1
 351 348 l 2,1,2
 445 348 445 348 494 410 c 0,3,4
 529 455 529 455 529 506 c 0,5,6
 530 614 530 614 440 656 c 0,7,8
 406 672 406 672 351 672 c 2,9,-1
 170 672 l 1,10,-1
 170 348 l 1,0,-1
170 40 m 1,11,12
 220 29 220 29 250 21 c 1,13,-1
 250 0 l 1,14,-1
 26 0 l 1,15,-1
 26 21 l 1,16,-1
 105 39 l 1,17,-1
 106 677 l 1,18,-1
 28 695 l 1,19,-1
 28 716 l 1,20,-1
 351 716 l 2,21,22
 486 716 486 716 552 648 c 1,23,24
 606 594 606 594 606 510 c 0,25,26
 606 427 606 427 552 371 c 0,27,28
 485 303 485 303 351 303 c 2,29,-1
 170 303 l 1,30,-1
 170 40 l 1,11,12
EndSplineSet
EndChar

StartChar: Q
Encoding: 81 81 52
Width: 841
Flags: W
LayerCount: 2
Fore
SplineSet
153.5 492.5 m 128,-1,1
 135 436 135 436 135 352 c 128,-1,2
 135 268 135 268 154 210 c 128,-1,3
 173 152 173 152 202 116 c 0,4,5
 252 53 252 53 335 32 c 0,6,7
 376 22 376 22 410 22 c 128,-1,8
 444 22 444 22 471 24 c 1,9,10
 498 24 498 24 532 34 c 0,11,12
 618 58 618 58 670 121 c 0,13,14
 740 207 740 207 740 355 c 256,15,16
 740 503 740 503 670 589 c 0,17,18
 620 650 620 650 532 673 c 0,19,20
 490 684 490 684 455.5 684 c 128,-1,21
 421 684 421 684 394.5 682.5 c 128,-1,22
 368 681 368 681 334.5 671.5 c 128,-1,23
 301 662 301 662 266 642 c 128,-1,24
 231 622 231 622 201.5 585.5 c 128,-1,0
 172 549 172 549 153.5 492.5 c 128,-1,1
434 728 m 1,25,26
 630 725 630 725 720 631 c 128,-1,27
 810 537 810 537 810 353 c 0,28,29
 810 104 810 104 620 16 c 0,30,31
 552 -16 552 -16 456 -23 c 1,32,-1
 456 -56 l 2,33,34
 456 -122 456 -122 502 -160 c 0,35,36
 538 -190 538 -190 583 -196 c 1,37,-1
 583 -207 l 1,38,39
 478 -202 478 -202 434 -143 c 0,40,41
 405 -104 405 -104 405 -55 c 2,42,-1
 405 -23 l 1,43,44
 138 -2 138 -2 78 208 c 0,45,46
 60 274 60 274 59 353 c 1,47,48
 59 537 59 537 157.5 631 c 128,-1,49
 256 725 256 725 434 728 c 1,25,26
EndSplineSet
EndChar

StartChar: R
Encoding: 82 82 53
Width: 682
Flags: W
LayerCount: 2
Fore
SplineSet
344 397 m 2,0,1
 432 397 432 397 477 444 c 0,2,3
 511 480 511 480 511 535 c 128,-1,4
 511 590 511 590 470 631 c 128,-1,5
 429 672 429 672 344 672 c 2,6,-1
 166 672 l 1,7,-1
 166 397 l 1,8,-1
 344 397 l 2,0,1
246 21 m 1,9,-1
 247 0 l 1,10,-1
 24 0 l 1,11,-1
 24 21 l 1,12,-1
 102 39 l 1,13,-1
 103 677 l 1,14,-1
 26 695 l 1,15,-1
 26 716 l 1,16,-1
 344 716 l 2,17,18
 459 716 459 716 519 664 c 128,-1,19
 579 612 579 612 579 536 c 128,-1,20
 579 460 579 460 527 417 c 0,21,22
 490 386 490 386 421 371 c 1,23,24
 482 363 482 363 516 294 c 0,25,26
 526 275 526 275 534 257 c 2,27,-1
 622 37 l 1,28,29
 639 33 639 33 658 28.5 c 128,-1,30
 677 24 677 24 694 20 c 1,31,-1
 695 0 l 1,32,-1
 472 0 l 1,33,-1
 472 21 l 1,34,-1
 558 40 l 1,35,-1
 458 283 l 1,36,37
 441 317 441 317 421 332.5 c 128,-1,38
 401 348 401 348 366 348 c 2,39,-1
 166 348 l 1,40,-1
 166 38 l 1,41,-1
 182 34 l 2,42,43
 198 30 198 30 246 21 c 1,9,-1
EndSplineSet
EndChar

StartChar: S
Encoding: 83 83 54
Width: 608
Flags: W
LayerCount: 2
Fore
SplineSet
67 38 m 1,0,-1
 65 154 l 1,1,-1
 85 154 l 1,2,-1
 103 82 l 1,3,4
 195 28 195 28 285.5 28 c 128,-1,5
 376 28 376 28 431.5 70 c 128,-1,6
 487 112 487 112 487 167 c 128,-1,7
 487 222 487 222 465 250.5 c 128,-1,8
 443 279 443 279 406.5 301.5 c 128,-1,9
 370 324 370 324 309 340 c 0,10,11
 187 373 187 373 127 421.5 c 128,-1,12
 67 470 67 470 67 548 c 128,-1,13
 67 626 67 626 133.5 678.5 c 128,-1,14
 200 731 200 731 325 731 c 0,15,16
 477 731 477 731 540 690 c 1,17,-1
 533 584 l 1,18,-1
 511 584 l 1,19,-1
 494 656 l 1,20,21
 409 692 409 692 318 692 c 0,22,23
 245 692 245 692 195 653.5 c 128,-1,24
 145 615 145 615 145 550 c 0,25,26
 145 462 145 462 235 425 c 0,27,28
 264 414 264 414 304 402 c 0,29,30
 420 368 420 368 474 330 c 0,31,32
 564 268 564 268 563 170 c 0,33,34
 562 111 562 111 534 74 c 0,35,36
 462 -20 462 -20 293 -20 c 0,37,38
 151 -20 151 -20 67 38 c 1,0,-1
EndSplineSet
EndChar

StartChar: T
Encoding: 84 84 55
Width: 636
Flags: W
LayerCount: 2
Fore
SplineSet
582 673 m 1,0,-1
 365 673 l 1,1,-1
 365 39 l 1,2,-1
 443 21 l 1,3,-1
 443 0 l 1,4,-1
 220 0 l 1,5,-1
 220 21 l 1,6,-1
 299 39 l 1,7,-1
 299 673 l 1,8,-1
 73 673 l 1,9,-1
 54 596 l 1,10,-1
 33 596 l 1,11,-1
 23 716 l 1,12,-1
 632 716 l 1,13,-1
 621 596 l 1,14,-1
 600 596 l 1,15,-1
 582 673 l 1,0,-1
EndSplineSet
EndChar

StartChar: U
Encoding: 85 85 56
Width: 737
Flags: W
LayerCount: 2
Fore
SplineSet
379 32 m 0,0,1
 590 32 590 32 590 303 c 2,2,-1
 590 677 l 1,3,-1
 511 694 l 1,4,-1
 511 716 l 1,5,-1
 734 716 l 1,6,-1
 733 695 l 1,7,-1
 656 678 l 1,8,-1
 653 303 l 2,9,10
 652 217 652 217 644 178 c 0,11,12
 626 90 626 90 574 44 c 0,13,14
 507 -14 507 -14 379 -15 c 1,15,16
 193 -15 193 -15 133 104 c 1,17,18
 104 164 104 164 100 246 c 0,19,20
 98 282 98 282 98 312 c 2,21,-1
 98 677 l 1,22,-1
 18 694 l 1,23,-1
 18 716 l 1,24,-1
 243 716 l 1,25,-1
 243 695 l 1,26,-1
 164 678 l 1,27,-1
 162 303 l 2,28,29
 162 154 162 154 227 88 c 0,30,31
 282 32 282 32 379 32 c 0,0,1
EndSplineSet
EndChar

StartChar: V
Encoding: 86 86 57
Width: 703
Flags: W
LayerCount: 2
Fore
SplineSet
342 36 m 1,0,-1
 570 682 l 1,1,-1
 504 696 l 1,2,-1
 504 716 l 1,3,-1
 716 716 l 1,4,-1
 716 696 l 1,5,-1
 644 679 l 1,6,-1
 390 0 l 1,7,-1
 295 0 l 1,8,-1
 47 679 l 1,9,-1
 -23 696 l 1,10,-1
 -23 716 l 1,11,-1
 191 716 l 1,12,-1
 191 695 l 1,13,-1
 115 679 l 1,14,-1
 342 36 l 1,0,-1
EndSplineSet
EndChar

StartChar: W
Encoding: 87 87 58
Width: 1069
Flags: W
LayerCount: 2
Fore
SplineSet
115 680 m 1,0,-1
 352 38 l 1,1,-1
 519 716 l 1,2,-1
 581 716 l 1,3,-1
 741 36 l 1,4,-1
 977 680 l 1,5,-1
 906 695 l 1,6,-1
 906 716 l 1,7,-1
 1116 716 l 1,8,-1
 1116 696 l 1,9,-1
 1047 679 l 1,10,-1
 801 0 l 1,11,-1
 700 0 l 1,12,-1
 549 645 l 1,13,-1
 395 0 l 1,14,-1
 294 0 l 1,15,-1
 45 679 l 1,16,-1
 -26 696 l 1,17,-1
 -26 716 l 1,18,-1
 185 716 l 1,19,-1
 185 695 l 1,20,-1
 115 680 l 1,0,-1
EndSplineSet
EndChar

StartChar: X
Encoding: 88 88 59
Width: 708
Flags: W
LayerCount: 2
Fore
SplineSet
227 20 m 1,0,-1
 227 0 l 1,1,-1
 4 0 l 1,2,-1
 4 21 l 1,3,-1
 72 37 l 1,4,-1
 328 369 l 1,5,-1
 87 679 l 1,6,-1
 19 696 l 1,7,-1
 19 716 l 1,8,-1
 242 716 l 1,9,-1
 242 695 l 1,10,-1
 166 677 l 1,11,-1
 361 418 l 1,12,-1
 560 680 l 1,13,-1
 485 696 l 1,14,-1
 485 716 l 1,15,-1
 708 716 l 1,16,-1
 708 696 l 1,17,-1
 640 679 l 1,18,-1
 403 369 l 1,19,-1
 652 37 l 1,20,21
 669 34 669 34 686.5 29 c 128,-1,22
 704 24 704 24 721 20 c 1,23,-1
 721 0 l 1,24,-1
 498 0 l 1,25,-1
 498 21 l 1,26,-1
 580 41 l 1,27,-1
 361 321 l 1,28,-1
 144 39 l 1,29,-1
 227 20 l 1,0,-1
EndSplineSet
EndChar

StartChar: Y
Encoding: 89 89 60
Width: 710
Flags: W
LayerCount: 2
Fore
SplineSet
474 21 m 1,0,-1
 474 0 l 1,1,-1
 252 0 l 1,2,-1
 252 21 l 1,3,-1
 329 39 l 1,4,-1
 329 266 l 1,5,-1
 62 679 l 1,6,-1
 -7 695 l 1,7,-1
 -7 716 l 1,8,-1
 205 716 l 1,9,-1
 205 696 l 1,10,-1
 128 681 l 1,11,-1
 362 309 l 1,12,-1
 600 681 l 1,13,-1
 529 696 l 1,14,-1
 529 716 l 1,15,-1
 738 716 l 1,16,-1
 738 696 l 1,17,-1
 670 679 l 1,18,-1
 397 266 l 1,19,-1
 397 39 l 1,20,-1
 474 21 l 1,0,-1
EndSplineSet
EndChar

StartChar: Z
Encoding: 90 90 61
Width: 675
Flags: W
LayerCount: 2
Fore
SplineSet
641 144 m 1,0,-1
 652 0 l 1,1,-1
 45 0 l 1,2,-1
 45 50 l 1,3,-1
 574 673 l 1,4,-1
 94 673 l 1,5,6
 77 601 77 601 76 597 c 1,7,-1
 57 597 l 1,8,-1
 45 716 l 1,9,-1
 652 716 l 1,10,-1
 653 670 l 1,11,-1
 128 50 l 1,12,-1
 605 50 l 1,13,-1
 641 144 l 1,0,-1
EndSplineSet
EndChar

StartChar: bracketleft
Encoding: 91 91 62
Width: 324
Flags: W
LayerCount: 2
Fore
SplineSet
323 705 m 1,0,-1
 165 705 l 1,1,-1
 165 -169 l 1,2,-1
 323 -169 l 1,3,-1
 323 -213 l 1,4,-1
 90 -213 l 1,5,-1
 90 750 l 1,6,-1
 323 750 l 1,7,-1
 323 705 l 1,0,-1
EndSplineSet
EndChar

StartChar: backslash
Encoding: 92 92 63
Width: 347
Flags: W
LayerCount: 2
Fore
SplineSet
357 -20 m 1,0,1
 357 -20 357 -20 310 -19 c 1,2,-1
 6 753 l 1,3,-1
 53 753 l 1,4,-1
 357 -20 l 1,0,1
EndSplineSet
EndChar

StartChar: bracketright
Encoding: 93 93 64
Width: 324
Flags: W
LayerCount: 2
Fore
SplineSet
247 750 m 1,0,-1
 247 -212 l 1,1,-1
 15 -212 l 1,2,-1
 15 -166 l 1,3,-1
 173 -166 l 1,4,-1
 173 705 l 1,5,-1
 15 705 l 1,6,-1
 15 750 l 1,7,-1
 247 750 l 1,0,-1
EndSplineSet
EndChar

StartChar: asciicircum
Encoding: 94 94 65
Width: 602
Flags: W
LayerCount: 2
Fore
SplineSet
64 288 m 1,0,-1
 294 715 l 1,1,-1
 348 715 l 1,2,-1
 571 280 l 1,3,-1
 521 280 l 1,4,-1
 322 695 l 1,5,-1
 116 287 l 1,6,-1
 64 288 l 1,0,-1
EndSplineSet
EndChar

StartChar: underscore
Encoding: 95 95 66
Width: 500
Flags: W
LayerCount: 2
Fore
SplineSet
511 -120 m 1,0,-1
 511 -139 l 1,1,-1
 10 -139 l 1,2,-1
 10 -120 l 1,3,-1
 511 -120 l 1,0,-1
EndSplineSet
EndChar

StartChar: grave
Encoding: 96 96 67
Width: 222
Flags: W
LayerCount: 2
Fore
SplineSet
82 751 m 1,0,-1
 132 639 l 1,1,-1
 90 639 l 1,2,-1
 4 751 l 1,3,-1
 82 751 l 1,0,-1
EndSplineSet
EndChar

StartChar: a
Encoding: 97 97 68
Width: 510
Flags: W
LayerCount: 2
Fore
SplineSet
364 275 m 1,0,1
 303 259 303 259 270 259 c 2,2,-1
 221 259 l 2,3,4
 204 259 204 259 185 257.5 c 128,-1,5
 166 256 166 256 150 246 c 0,6,7
 113 222 113 222 113 157.5 c 128,-1,8
 113 93 113 93 145 65 c 128,-1,9
 177 37 177 37 217 37 c 0,10,11
 298 37 298 37 362 99 c 1,12,-1
 364 275 l 1,0,1
203 -6 m 0,13,14
 46 -6 46 -6 46 149 c 0,15,16
 46 256 46 256 130 290 c 0,17,18
 161 302 161 302 204 302 c 0,19,20
 289 302 289 302 314.5 306 c 128,-1,21
 340 310 340 310 361 329 c 1,22,23
 362 431 362 431 336 461 c 0,24,25
 322 477 322 477 299.5 481.5 c 128,-1,26
 277 486 277 486 229 486 c 128,-1,27
 181 486 181 486 126 469 c 1,28,29
 123 455 123 455 119 435 c 128,-1,30
 115 415 115 415 110 392 c 1,31,-1
 87 392 l 1,32,-1
 80 500 l 1,33,34
 150 534 150 534 240 534 c 256,35,36
 330 534 330 534 374 494 c 0,37,38
 426 446 426 446 427 332 c 1,39,-1
 427 41 l 1,40,-1
 507 22 l 1,41,-1
 507 0 l 1,42,-1
 389 0 l 1,43,-1
 358 64 l 1,44,45
 233 -6 233 -6 203 -6 c 0,13,14
EndSplineSet
EndChar

StartChar: b
Encoding: 98 98 69
Width: 557
Flags: W
LayerCount: 2
Fore
SplineSet
451 275 m 0,0,1
 451 488 451 488 342 488 c 0,2,3
 283 488 283 488 241 444 c 0,4,5
 198 400 198 400 175 342 c 1,6,7
 153 283 153 283 153 241 c 2,8,-1
 153 63 l 1,9,10
 231 29 231 29 287.5 29 c 128,-1,11
 344 29 344 29 375.5 52 c 128,-1,12
 407 75 407 75 424 111 c 0,13,14
 451 168 451 168 451 275 c 0,0,1
87 755 m 1,15,-1
 8 773 l 1,16,-1
 8 795 l 1,17,-1
 155 795 l 1,18,-1
 155 385 l 1,19,20
 159 405 159 405 175 431 c 0,21,22
 191 458 191 458 216 480 c 0,23,24
 275 534 275 534 346 533 c 1,25,26
 472 534 472 534 508 398 c 0,27,28
 522 348 522 348 522 275 c 0,29,30
 522 125 522 125 463.5 56.5 c 128,-1,31
 405 -12 405 -12 278 -12 c 0,32,33
 227 -12 227 -12 179 0.5 c 128,-1,34
 131 13 131 13 87 27 c 1,35,-1
 87 755 l 1,15,-1
EndSplineSet
EndChar

StartChar: c
Encoding: 99 99 70
Width: 529
Flags: W
LayerCount: 2
Fore
SplineSet
496 491 m 1,0,-1
 489 386 l 1,1,-1
 468 386 l 1,2,-1
 450 458 l 1,3,4
 368 486 368 486 339 487 c 1,5,6
 293 487 293 487 256.5 479 c 128,-1,7
 220 471 220 471 192 447 c 0,8,9
 130 394 130 394 130 266 c 0,10,11
 130 72 130 72 254 40 c 0,12,13
 290 30 290 30 332 31 c 1,14,15
 421 31 421 31 507 74 c 1,16,-1
 508 16 l 1,17,18
 408 -15 408 -15 332 -15 c 0,19,20
 198 -15 198 -15 130 52.5 c 128,-1,21
 62 120 62 120 62 264 c 0,22,23
 62 478 62 478 219 520 c 0,24,25
 269 534 269 534 344 533.5 c 128,-1,26
 419 533 419 533 496 491 c 1,0,-1
EndSplineSet
EndChar

StartChar: d
Encoding: 100 100 71
Width: 589
Flags: W
LayerCount: 2
Fore
SplineSet
423 456 m 1,0,1
 334 494 334 494 270.5 494 c 128,-1,2
 207 494 207 494 172 444 c 0,3,4
 136 392 136 392 134 298 c 0,5,6
 134 276 134 276 134 255 c 0,7,8
 134 174 134 174 156 118 c 0,9,10
 188 35 188 35 264 35 c 0,11,12
 354 35 354 35 395.5 85.5 c 128,-1,13
 437 136 437 136 437 225 c 2,14,-1
 437 449 l 1,15,-1
 423 456 l 1,0,1
438 506 m 1,16,-1
 438 756 l 1,17,-1
 359 774 l 1,18,-1
 358 796 l 1,19,-1
 507 796 l 1,20,-1
 506 38 l 1,21,-1
 588 21 l 1,22,-1
 588 0 l 1,23,-1
 443 0 l 1,24,-1
 433 91 l 1,25,26
 418 46 418 46 373 18.5 c 128,-1,27
 328 -9 328 -9 275.5 -9 c 128,-1,28
 223 -9 223 -9 186.5 5 c 128,-1,29
 150 19 150 19 122 51 c 0,30,31
 61 121 61 121 61 263 c 128,-1,32
 61 405 61 405 121.5 472.5 c 128,-1,33
 182 540 182 540 264 540 c 128,-1,34
 346 540 346 540 438 506 c 1,16,-1
EndSplineSet
EndChar

StartChar: e
Encoding: 101 101 72
Width: 541
Flags: W
LayerCount: 2
Fore
SplineSet
434 306 m 1,0,1
 430 432 430 432 354 472 c 0,2,3
 326 486 326 486 286 486 c 0,4,5
 206 486 206 486 166.5 433.5 c 128,-1,6
 127 381 127 381 127 305 c 1,7,-1
 434 306 l 1,0,1
485 71 m 1,8,9
 411 -16 411 -16 288 -16 c 0,10,11
 104 -16 104 -16 66 138 c 0,12,13
 54 187 54 187 53 247 c 1,14,15
 53 381 53 381 109.5 456.5 c 128,-1,16
 166 532 166 532 288 532 c 0,17,18
 493 532 493 532 493 268 c 0,19,20
 493 265 493 265 493 263 c 1,21,-1
 119 264 l 1,22,23
 119 211 119 211 123 167.5 c 128,-1,24
 127 124 127 124 144 92 c 0,25,26
 180 25 180 25 288 25 c 0,27,28
 341 25 341 25 380.5 50 c 128,-1,29
 420 75 420 75 441 106 c 1,30,-1
 485 71 l 1,8,9
EndSplineSet
EndChar

StartChar: f
Encoding: 102 102 73
Width: 314
Flags: W
LayerCount: 2
Fore
SplineSet
293 780 m 0,0,1
 340 780 340 780 404 749 c 1,2,-1
 397 641 l 1,3,-1
 377 641 l 1,4,-1
 360 718 l 1,5,6
 318 728 318 728 280.5 728 c 128,-1,7
 243 728 243 728 215.5 716 c 128,-1,8
 188 704 188 704 175.5 682.5 c 128,-1,9
 163 661 163 661 161 630.5 c 128,-1,10
 159 600 159 600 159 564 c 2,11,-1
 159 518 l 1,12,-1
 288 518 l 1,13,-1
 288 475 l 1,14,-1
 159 475 l 1,15,-1
 159 38 l 1,16,-1
 241 21 l 1,17,-1
 241 0 l 1,18,-1
 13 0 l 1,19,-1
 13 21 l 1,20,-1
 93 40 l 1,21,-1
 95 475 l 1,22,-1
 9 475 l 1,23,-1
 9 518 l 1,24,-1
 95 518 l 1,25,-1
 95 564 l 2,26,27
 95 686 95 686 144 733 c 128,-1,28
 193 780 193 780 293 780 c 0,0,1
EndSplineSet
EndChar

StartChar: g
Encoding: 103 103 74
Width: 587
Flags: W
LayerCount: 2
Fore
SplineSet
80 -138 m 1,0,-1
 120 -106 l 1,1,2
 161 -150 161 -150 218 -174 c 0,3,4
 247 -186 247 -186 282 -186 c 0,5,6
 347 -186 347 -186 382 -164 c 0,7,8
 453 -119 453 -119 453 -28 c 0,9,10
 453 -20 453 -20 452 -11 c 1,11,-1
 452 64 l 1,12,13
 410 -4 410 -4 342 -14 c 0,14,15
 320 -18 320 -18 293 -17 c 1,16,17
 164 -18 164 -18 102 66 c 0,18,19
 48 138 48 138 48.5 268 c 128,-1,20
 49 398 49 398 103 465.5 c 128,-1,21
 157 533 157 533 273.5 533 c 128,-1,22
 390 533 390 533 440 480 c 0,23,24
 456 463 456 463 469 442 c 1,25,-1
 474 517 l 1,26,-1
 587 517 l 1,27,-1
 587 493 l 1,28,-1
 519 467 l 1,29,-1
 519 -11 l 2,30,31
 519 -170 519 -170 382 -217 c 0,32,33
 341 -231 341 -231 277 -231 c 0,34,35
 158 -231 158 -231 80 -138 c 1,0,-1
587 493 m 1,36,-1
 588 494 l 1,37,-1
 587 493 l 1,36,-1
134 393 m 128,-1,39
 118 347 118 347 118 263 c 128,-1,40
 118 179 118 179 135 132.5 c 128,-1,41
 152 86 152 86 178 63 c 128,-1,42
 204 40 204 40 234.5 34.5 c 128,-1,43
 265 29 265 29 290 29 c 128,-1,44
 315 29 315 29 343 33 c 1,45,46
 372 36 372 36 396 58 c 0,47,48
 454 109 454 109 454 259.5 c 128,-1,49
 454 410 454 410 394 458 c 0,50,51
 368 479 368 479 338 483 c 128,-1,52
 308 487 308 487 282.5 487 c 128,-1,53
 257 487 257 487 228 484 c 128,-1,54
 199 481 199 481 174.5 460 c 128,-1,38
 150 439 150 439 134 393 c 128,-1,39
EndSplineSet
EndChar

StartChar: h
Encoding: 104 104 75
Width: 600
Flags: W
LayerCount: 2
Fore
SplineSet
91 756 m 1,0,-1
 9 774 l 1,1,-1
 9 796 l 1,2,-1
 155 796 l 1,3,-1
 156 411 l 1,4,5
 179 456 179 456 237 494 c 128,-1,6
 295 532 295 532 362 532 c 128,-1,7
 429 532 429 532 473 478.5 c 128,-1,8
 517 425 517 425 517 312 c 2,9,-1
 515 40 l 1,10,-1
 597 22 l 1,11,-1
 597 0 l 1,12,-1
 372 0 l 1,13,-1
 372 21 l 1,14,-1
 451 40 l 1,15,-1
 453 319 l 2,16,17
 453 396 453 396 420.5 439 c 128,-1,18
 388 482 388 482 323 482 c 128,-1,19
 258 482 258 482 207 436 c 128,-1,20
 156 390 156 390 156 330 c 2,21,-1
 156 40 l 1,22,-1
 238 21 l 1,23,-1
 238 0 l 1,24,-1
 11 0 l 1,25,-1
 11 22 l 1,26,-1
 91 38 l 1,27,-1
 91 756 l 1,0,-1
EndSplineSet
EndChar

StartChar: i
Encoding: 105 105 76
Width: 239
Flags: W
LayerCount: 2
Fore
SplineSet
73 710 m 1,0,-1
 73 795 l 1,1,-1
 158 795 l 1,2,-1
 158 710 l 1,3,-1
 73 710 l 1,0,-1
10 496 m 1,4,-1
 10 517 l 1,5,-1
 158 517 l 1,6,-1
 158 40 l 1,7,-1
 238 21 l 1,8,-1
 238 0 l 1,9,-1
 10 0 l 1,10,-1
 10 21 l 1,11,-1
 90 40 l 1,12,-1
 90 477 l 1,13,-1
 10 496 l 1,4,-1
EndSplineSet
EndChar

StartChar: j
Encoding: 106 106 77
Width: 241
Flags: W
LayerCount: 2
Fore
SplineSet
158 710 m 1,0,-1
 74 710 l 1,1,-1
 74 795 l 1,2,-1
 158 795 l 1,3,-1
 158 710 l 1,0,-1
26 -170 m 1,4,5
 90 -108 90 -108 90 -27 c 2,6,-1
 90 477 l 1,7,-1
 10 496 l 1,8,-1
 10 517 l 1,9,-1
 158 517 l 1,10,-1
 158 -17 l 2,11,12
 158 -118 158 -118 107 -171 c 0,13,14
 74 -205 74 -205 26 -215 c 1,15,-1
 26 -170 l 1,4,5
EndSplineSet
EndChar

StartChar: k
Encoding: 107 107 78
Width: 557
Flags: W
LayerCount: 2
Fore
SplineSet
518 411 m 0,0,1
 518 307 518 307 363 201 c 1,2,-1
 488 37 l 1,3,-1
 557 21 l 1,4,-1
 557 0 l 1,5,-1
 330 0 l 1,6,-1
 330 21 l 1,7,-1
 408 37 l 1,8,-1
 305 171 l 1,9,-1
 244 145 l 1,10,-1
 244 197 l 1,11,12
 457 290 457 290 457 400 c 0,13,14
 457 446 457 446 429.5 473 c 128,-1,15
 402 500 402 500 365 500 c 0,16,17
 294 500 294 500 227.5 437 c 128,-1,18
 161 374 161 374 159 300 c 1,19,-1
 159 40 l 1,20,-1
 238 21 l 1,21,-1
 238 0 l 1,22,-1
 10 0 l 1,23,-1
 10 21 l 1,24,-1
 89 40 l 1,25,-1
 89 755 l 1,26,27
 20 771 20 771 10 774 c 1,28,-1
 10 795 l 1,29,-1
 159 795 l 1,30,-1
 159 400 l 1,31,32
 194 466 194 466 247.5 508.5 c 128,-1,33
 301 551 301 551 371.5 551 c 128,-1,34
 442 551 442 551 480 511 c 128,-1,35
 518 471 518 471 518 411 c 0,0,1
EndSplineSet
EndChar

StartChar: l
Encoding: 108 108 79
Width: 239
Flags: W
LayerCount: 2
Fore
SplineSet
90 755 m 1,0,1
 21 771 21 771 11 774 c 1,2,-1
 11 795 l 1,3,-1
 159 795 l 1,4,-1
 159 40 l 1,5,-1
 238 21 l 1,6,-1
 238 0 l 1,7,-1
 11 0 l 1,8,-1
 11 21 l 1,9,-1
 90 40 l 1,10,-1
 90 755 l 1,0,1
EndSplineSet
EndChar

StartChar: m
Encoding: 109 109 80
Width: 843
Flags: W
LayerCount: 2
Fore
SplineSet
328 533 m 1,0,1
 428 533 428 533 449 415 c 1,2,3
 472 462 472 462 525 497.5 c 128,-1,4
 578 533 578 533 639 533 c 128,-1,5
 700 533 700 533 729.5 482.5 c 128,-1,6
 759 432 759 432 759 324 c 2,7,-1
 761 41 l 1,8,-1
 843 20 l 1,9,-1
 843 0 l 1,10,-1
 698 0 l 1,11,-1
 698 330 l 2,12,13
 698 410 698 410 685 436 c 128,-1,14
 672 462 672 462 653.5 473 c 128,-1,15
 635 484 635 484 601 484 c 0,16,17
 534 484 534 484 497 435.5 c 128,-1,18
 460 387 460 387 460 320 c 2,19,-1
 460 40 l 1,20,-1
 538 21 l 1,21,-1
 538 0 l 1,22,-1
 392 0 l 1,23,-1
 392 320 l 2,24,25
 392 401 392 401 373.5 442.5 c 128,-1,26
 355 484 355 484 302 484 c 0,27,28
 231 484 231 484 192.5 434 c 128,-1,29
 154 384 154 384 154 320 c 2,30,-1
 154 41 l 1,31,-1
 237 20 l 1,32,-1
 237 0 l 1,33,-1
 8 0 l 1,34,-1
 8 21 l 1,35,-1
 88 40 l 1,36,-1
 88 477 l 1,37,-1
 8 496 l 1,38,-1
 8 517 l 1,39,-1
 148 517 l 1,40,-1
 160 417 l 1,41,42
 198 492 198 492 282 524 c 0,43,44
 306 534 306 534 328 533 c 1,0,1
EndSplineSet
EndChar

StartChar: n
Encoding: 110 110 81
Width: 595
Flags: W
LayerCount: 2
Fore
SplineSet
89 477 m 1,0,1
 17 493 17 493 7 495 c 1,2,-1
 7 517 l 1,3,-1
 147 517 l 1,4,-1
 160 415 l 1,5,6
 189 464 189 464 240.5 498 c 128,-1,7
 292 532 292 532 359.5 532 c 128,-1,8
 427 532 427 532 471 478.5 c 128,-1,9
 515 425 515 425 515 312 c 2,10,-1
 515 40 l 1,11,-1
 595 22 l 1,12,-1
 595 0 l 1,13,-1
 451 0 l 1,14,-1
 451 319 l 2,15,16
 451 396 451 396 418.5 439 c 128,-1,17
 386 482 386 482 321 482 c 128,-1,18
 256 482 256 482 205 436 c 128,-1,19
 154 390 154 390 154 330 c 2,20,-1
 154 40 l 1,21,-1
 237 21 l 1,22,-1
 237 0 l 1,23,-1
 9 0 l 1,24,-1
 9 22 l 1,25,-1
 89 38 l 1,26,-1
 89 477 l 1,0,1
EndSplineSet
EndChar

StartChar: o
Encoding: 111 111 82
Width: 585
Flags: W
LayerCount: 2
Fore
SplineSet
147 393 m 128,-1,1
 131 347 131 347 131 263 c 128,-1,2
 131 179 131 179 148 132.5 c 128,-1,3
 165 86 165 86 191 63 c 128,-1,4
 217 40 217 40 248 34.5 c 128,-1,5
 279 29 279 29 304 29 c 128,-1,6
 329 29 329 29 356 33 c 1,7,8
 384 36 384 36 409 58 c 0,9,10
 468 109 468 109 468 259 c 128,-1,11
 468 409 468 409 408 458 c 0,12,13
 382 479 382 479 352.5 483 c 128,-1,14
 323 487 323 487 297 487 c 128,-1,15
 271 487 271 487 242 484 c 128,-1,16
 213 481 213 481 188 460 c 128,-1,0
 163 439 163 439 147 393 c 128,-1,1
545 252 m 0,17,18
 545 119 545 119 492 51 c 128,-1,19
 439 -17 439 -17 308 -17 c 1,20,21
 178 -18 178 -18 115 66 c 0,22,23
 60 139 60 139 60 267.5 c 128,-1,24
 60 396 60 396 115 464.5 c 128,-1,25
 170 533 170 533 300 533 c 0,26,27
 545 533 545 533 545 252 c 0,17,18
EndSplineSet
EndChar

StartChar: p
Encoding: 112 112 83
Width: 571
Flags: W
LayerCount: 2
Fore
SplineSet
154 74 m 1,0,1
 185 60 185 60 216.5 49 c 128,-1,2
 248 38 248 38 298 38 c 0,3,4
 389 38 389 38 430 107 c 0,5,6
 459 156 459 156 459 230 c 0,7,8
 459 236 459 236 459 242 c 0,9,10
 459 421 459 421 399 470 c 0,11,12
 377 488 377 488 336.5 488 c 128,-1,13
 296 488 296 488 260.5 460 c 128,-1,14
 225 432 225 432 201.5 392.5 c 128,-1,15
 178 353 178 353 166 311 c 128,-1,16
 154 269 154 269 154 242 c 2,17,-1
 154 74 l 1,0,1
154 20 m 1,18,-1
 154 -176 l 1,19,-1
 232 -191 l 1,20,-1
 232 -213 l 1,21,-1
 11 -213 l 1,22,-1
 11 -190 l 1,23,-1
 88 -175 l 1,24,-1
 88 477 l 1,25,26
 33 490 33 490 9 495 c 1,27,-1
 9 517 l 1,28,-1
 154 517 l 1,29,-1
 154 399 l 1,30,31
 198 490 198 490 288 521 c 0,32,33
 320 532 320 532 360 532 c 0,34,35
 443 532 443 532 484 468 c 128,-1,36
 525 404 525 404 525 242 c 0,37,38
 525 105 525 105 459 41 c 0,39,40
 405 -11 405 -11 321.5 -11 c 128,-1,41
 238 -11 238 -11 154 20 c 1,18,-1
EndSplineSet
EndChar

StartChar: q
Encoding: 113 113 84
Width: 566
Flags: W
LayerCount: 2
Fore
SplineSet
421 448 m 1,0,1
 348 487 348 487 289.5 487 c 128,-1,2
 231 487 231 487 200 466 c 0,3,4
 168 445 168 445 152 412 c 0,5,6
 124 357 124 357 125 259 c 1,7,8
 125 158 125 158 140 114.5 c 128,-1,9
 155 71 155 71 176.5 50 c 128,-1,10
 198 29 198 29 239.5 29 c 128,-1,11
 281 29 281 29 316 49.5 c 128,-1,12
 351 70 351 70 374.5 100 c 128,-1,13
 398 130 398 130 409.5 164 c 128,-1,14
 421 198 421 198 421 225 c 2,15,-1
 421 448 l 1,0,1
566 -190 m 1,16,-1
 566 -212 l 1,17,-1
 342 -212 l 1,18,-1
 342 -190 l 1,19,-1
 421 -174 l 1,20,-1
 421 104 l 1,21,22
 399 62 399 62 355 28 c 1,23,24
 267 -17 267 -17 245 -16 c 0,25,26
 243 -16 243 -16 242 -16 c 0,27,28
 187 -16 187 -16 154 4 c 0,29,30
 61 59 61 59 61 263 c 0,31,32
 61 400 61 400 118.5 463.5 c 128,-1,33
 176 527 176 527 306 527 c 1,34,35
 386 526 386 526 458 496 c 0,36,37
 476 488 476 488 487 484 c 1,38,-1
 487 -173 l 1,39,-1
 566 -190 l 1,16,-1
EndSplineSet
EndChar

StartChar: r
Encoding: 114 114 85
Width: 388
Flags: W
LayerCount: 2
Fore
SplineSet
151 38 m 1,0,1
 191 30 191 30 227 21 c 1,2,-1
 227 0 l 1,3,-1
 9 0 l 1,4,-1
 9 21 l 1,5,-1
 83 38 l 1,6,-1
 83 477 l 1,7,-1
 5 496 l 1,8,-1
 5 517 l 1,9,-1
 137 517 l 1,10,-1
 162 408 l 1,11,12
 173 469 173 469 212 500 c 0,13,14
 251 532 251 532 298.5 532 c 128,-1,15
 346 532 346 532 377 518 c 1,16,-1
 370 398 l 1,17,-1
 348 398 l 1,18,-1
 330 477 l 1,19,20
 314 480 314 480 293 480 c 128,-1,21
 272 480 272 480 246.5 474.5 c 128,-1,22
 221 469 221 469 200 446 c 0,23,24
 151 392 151 392 151 249 c 2,25,-1
 151 38 l 1,0,1
EndSplineSet
EndChar

StartChar: s
Encoding: 115 115 86
Width: 492
Flags: W
LayerCount: 2
Fore
SplineSet
58 42 m 1,0,-1
 65 152 l 1,1,-1
 86 152 l 1,2,-1
 104 80 l 1,3,4
 223 37 223 37 263 35 c 1,5,6
 358 34 358 34 386 88 c 0,7,8
 396 108 396 108 396.5 135.5 c 128,-1,9
 397 163 397 163 381 180.5 c 128,-1,10
 365 198 365 198 332 215 c 128,-1,11
 299 232 299 232 218 249 c 128,-1,12
 137 266 137 266 101 304.5 c 128,-1,13
 65 343 65 343 65 395 c 0,14,15
 64 476 64 476 150 513 c 0,16,17
 184 528 184 528 230 528 c 128,-1,18
 276 528 276 528 306.5 523 c 128,-1,19
 337 518 337 518 362 511 c 128,-1,20
 387 504 387 504 404.5 496.5 c 128,-1,21
 422 489 422 489 432 485 c 1,22,23
 430 457 430 457 430 432 c 128,-1,24
 430 407 430 407 428 381 c 1,25,-1
 406 381 l 1,26,-1
 388 454 l 1,27,28
 299 486 299 486 246 486 c 0,29,30
 194 486 194 486 174 473 c 0,31,32
 135 449 135 449 135 399 c 0,33,34
 135 350 135 350 161 333 c 128,-1,35
 187 316 187 316 254 299 c 1,36,37
 362 275 362 275 414 239.5 c 128,-1,38
 466 204 466 204 466 136 c 128,-1,39
 466 68 466 68 411 26.5 c 128,-1,40
 356 -15 356 -15 265 -15 c 0,41,42
 174 -16 174 -16 88 22 c 0,43,44
 68 30 68 30 58 37 c 1,45,-1
 58 42 l 1,0,-1
EndSplineSet
EndChar

StartChar: t
Encoding: 116 116 87
Width: 352
Flags: W
LayerCount: 2
Fore
SplineSet
307 1 m 1,0,1
 261 -12 261 -12 223.5 -12 c 128,-1,2
 186 -12 186 -12 168 -8 c 0,3,4
 112 6 112 6 111 104 c 1,5,-1
 111 474 l 1,6,-1
 10 474 l 1,7,-1
 10 517 l 1,8,-1
 110 517 l 1,9,-1
 131 671 l 1,10,-1
 176 671 l 1,11,-1
 176 517 l 1,12,-1
 310 517 l 1,13,-1
 310 474 l 1,14,-1
 176 474 l 1,15,-1
 176 139 l 2,16,17
 176 71 176 71 184.5 57.5 c 128,-1,18
 193 44 193 44 204.5 40.5 c 128,-1,19
 216 37 216 37 243 37 c 128,-1,20
 270 37 270 37 307 54 c 1,21,-1
 307 1 l 1,0,1
EndSplineSet
EndChar

StartChar: u
Encoding: 117 117 88
Width: 594
Flags: W
LayerCount: 2
Fore
SplineSet
340 497 m 1,0,-1
 340 517 l 1,1,-1
 515 517 l 1,2,-1
 515 40 l 1,3,-1
 595 21 l 1,4,-1
 595 0 l 1,5,-1
 455 0 l 1,6,-1
 443 97 l 1,7,8
 416 45 416 45 360 14 c 0,9,10
 302 -18 302 -18 258 -18 c 0,11,12
 174 -18 174 -18 129 32.5 c 128,-1,13
 84 83 84 83 84 196 c 2,14,-1
 84 477 l 1,15,-1
 8 496 l 1,16,-1
 8 517 l 1,17,-1
 151 517 l 1,18,-1
 151 187 l 2,19,20
 151 106 151 106 176 66.5 c 128,-1,21
 201 27 201 27 265 27 c 0,22,23
 336 27 336 27 393 76.5 c 128,-1,24
 450 126 450 126 450 203 c 2,25,-1
 450 480 l 1,26,-1
 340 497 l 1,0,-1
EndSplineSet
EndChar

StartChar: v
Encoding: 118 118 89
Width: 553
Flags: W
LayerCount: 2
Fore
SplineSet
-14 494 m 1,0,-1
 -14 517 l 1,1,-1
 210 517 l 1,2,-1
 210 496 l 1,3,-1
 127 476 l 1,4,-1
 282 36 l 1,5,-1
 436 477 l 1,6,-1
 367 495 l 1,7,-1
 367 517 l 1,8,-1
 578 517 l 1,9,-1
 578 497 l 1,10,-1
 504 480 l 1,11,-1
 320 0 l 1,12,-1
 241 0 l 1,13,-1
 60 480 l 1,14,-1
 -14 494 l 1,0,-1
EndSplineSet
EndChar

StartChar: w
Encoding: 119 119 90
Width: 794
Flags: W
LayerCount: 2
Fore
SplineSet
356 517 m 1,0,-1
 433 517 l 1,1,-1
 576 49 l 1,2,-1
 681 479 l 1,3,-1
 594 494 l 1,4,-1
 594 517 l 1,5,-1
 820 517 l 1,6,-1
 820 494 l 1,7,-1
 743 480 l 1,8,9
 741 473 741 473 620 0 c 1,10,-1
 543 0 l 1,11,-1
 395 482 l 1,12,-1
 248 0 l 1,13,-1
 171 0 l 1,14,15
 50 473 50 473 48 480 c 1,16,-1
 -29 494 l 1,17,-1
 -29 517 l 1,18,-1
 197 517 l 1,19,-1
 197 494 l 1,20,-1
 110 479 l 1,21,-1
 215 49 l 1,22,-1
 356 517 l 1,0,-1
EndSplineSet
EndChar

StartChar: x
Encoding: 120 120 91
Width: 546
Flags: W
LayerCount: 2
Fore
SplineSet
219 496 m 1,0,-1
 162 476 l 1,1,-1
 273 302 l 1,2,-1
 389 477 l 1,3,-1
 334 496 l 1,4,-1
 334 517 l 1,5,-1
 531 517 l 1,6,-1
 531 497 l 1,7,-1
 461 480 l 1,8,-1
 314 261 l 1,9,-1
 474 37 l 1,10,-1
 547 20 l 1,11,-1
 547 0 l 1,12,-1
 350 0 l 1,13,-1
 350 21 l 1,14,-1
 401 41 l 1,15,-1
 275 226 l 1,16,-1
 151 41 l 1,17,-1
 200 21 l 1,18,-1
 200 0 l 1,19,-1
 6 0 l 1,20,-1
 6 20 l 1,21,-1
 77 37 l 1,22,-1
 238 260 l 1,23,-1
 93 480 l 1,24,-1
 25 497 l 1,25,-1
 25 517 l 1,26,-1
 219 517 l 1,27,-1
 219 496 l 1,0,-1
EndSplineSet
EndChar

StartChar: y
Encoding: 121 121 92
Width: 570
Flags: W
LayerCount: 2
Fore
SplineSet
525 480 m 1,0,-1
 292 -174 l 1,1,-1
 381 -192 l 1,2,-1
 381 -214 l 1,3,-1
 153 -214 l 1,4,-1
 153 -193 l 1,5,-1
 230 -177 l 1,6,-1
 271 -58 l 1,7,-1
 55 480 l 1,8,-1
 -18 494 l 1,9,-1
 -18 517 l 1,10,-1
 206 517 l 1,11,-1
 206 497 l 1,12,-1
 123 479 l 1,13,-1
 301 -3 l 1,14,-1
 457 476 l 1,15,-1
 374 495 l 1,16,-1
 374 517 l 1,17,-1
 598 517 l 1,18,-1
 598 497 l 1,19,-1
 525 480 l 1,0,-1
EndSplineSet
EndChar

StartChar: z
Encoding: 122 122 93
Width: 478
Flags: W
LayerCount: 2
Fore
SplineSet
417 132 m 1,0,-1
 438 132 l 1,1,-1
 450 0 l 1,2,-1
 46 0 l 1,3,-1
 46 53 l 1,4,-1
 373 473 l 1,5,-1
 96 473 l 1,6,-1
 77 394 l 1,7,-1
 55 394 l 1,8,-1
 48 517 l 1,9,-1
 457 517 l 1,10,-1
 458 475 l 1,11,-1
 130 53 l 1,12,-1
 399 53 l 1,13,-1
 417 132 l 1,0,-1
EndSplineSet
EndChar

StartChar: braceleft
Encoding: 123 123 94
Width: 447
Flags: W
LayerCount: 2
Fore
SplineSet
222 -60 m 2,0,1
 222 -167 222 -167 372 -167 c 2,2,-1
 430 -167 l 1,3,-1
 430 -213 l 1,4,-1
 362 -213 l 2,5,6
 218 -213 218 -213 170 -103 c 0,7,8
 152 -63 152 -63 153 -3 c 1,9,-1
 153 150 l 2,10,11
 153 213 153 213 91 238 c 2,12,-1
 66 248 l 1,13,-1
 66 294 l 1,14,15
 98 307 98 307 124 330.5 c 128,-1,16
 150 354 150 354 153 396 c 1,17,-1
 153 551 l 2,18,19
 153 655 153 655 213.5 704 c 128,-1,20
 274 753 274 753 362 753 c 2,21,-1
 430 753 l 1,22,-1
 430 706 l 1,23,-1
 372 706 l 2,24,25
 319 706 319 706 290 694 c 128,-1,26
 261 682 261 682 241.5 660 c 128,-1,27
 222 638 222 638 222 597 c 2,28,-1
 222 397 l 2,29,30
 222 336 222 336 188 304 c 0,31,32
 176 292 176 292 159 290 c 1,33,-1
 159 252 l 1,34,35
 194 245 194 245 208 214.5 c 128,-1,36
 222 184 222 184 222 150 c 2,37,-1
 222 -60 l 2,0,1
EndSplineSet
EndChar

StartChar: bar
Encoding: 124 124 95
Width: 229
Flags: W
LayerCount: 2
Fore
SplineSet
100 809 m 1,0,-1
 147 809 l 1,1,-1
 147 -234 l 1,2,-1
 100 -234 l 1,3,-1
 100 809 l 1,0,-1
EndSplineSet
EndChar

StartChar: braceright
Encoding: 125 125 96
Width: 444
Flags: W
LayerCount: 2
Fore
SplineSet
246 597 m 2,0,1
 246 706 246 706 95 706 c 2,2,-1
 37 706 l 1,3,-1
 37 753 l 1,4,-1
 105 753 l 1,5,6
 248 752 248 752 298 644 c 0,7,8
 316 606 316 606 315 551 c 1,9,-1
 315 397 l 2,10,11
 315 324 315 324 404 294 c 1,12,-1
 402 247 l 1,13,14
 346 225 346 225 324 183 c 0,15,16
 316 168 316 168 315 150 c 1,17,-1
 315 -3 l 2,18,19
 315 -114 315 -114 251 -168 c 0,20,21
 197 -214 197 -214 105 -213 c 1,22,-1
 37 -213 l 1,23,-1
 37 -167 l 1,24,-1
 95 -167 l 2,25,26
 152 -167 152 -167 180 -156 c 128,-1,27
 208 -145 208 -145 227 -123.5 c 128,-1,28
 246 -102 246 -102 246 -60 c 2,29,-1
 246 150 l 2,30,31
 246 185 246 185 260 214.5 c 128,-1,32
 274 244 274 244 309 251 c 1,33,-1
 309 289 l 1,34,35
 277 294 277 294 261.5 326 c 128,-1,36
 246 358 246 358 246 397 c 2,37,-1
 246 597 l 2,0,1
EndSplineSet
EndChar

StartChar: asciitilde
Encoding: 126 126 97
Width: 600
Flags: W
LayerCount: 2
Fore
SplineSet
518 217 m 1,0,1
 450 189 450 189 416 189 c 0,2,3
 365 189 365 189 312.5 202.5 c 128,-1,4
 260 216 260 216 215.5 216 c 128,-1,5
 171 216 171 216 108 197 c 1,6,-1
 106 237 l 1,7,8
 134 250 134 250 158 259 c 128,-1,9
 182 268 182 268 214 268 c 0,10,11
 253 268 253 268 311.5 254 c 128,-1,12
 370 240 370 240 419.5 240 c 128,-1,13
 469 240 469 240 518 262 c 1,14,-1
 518 217 l 1,0,1
EndSplineSet
EndChar

StartChar: exclamdown
Encoding: 161 161 98
Width: 284
Flags: W
LayerCount: 2
Fore
SplineSet
181 -2 m 1,0,-1
 181 -215 l 1,1,-1
 110 -215 l 1,2,-1
 110 -2 l 1,3,-1
 135 292 l 1,4,-1
 156 292 l 1,5,-1
 181 -2 l 1,0,-1
106 516 m 1,6,-1
 191 516 l 1,7,-1
 191 432 l 1,8,-1
 106 432 l 1,9,-1
 106 516 l 1,6,-1
EndSplineSet
EndChar

StartChar: cent
Encoding: 162 162 99
Width: 509
Flags: W
LayerCount: 2
Fore
SplineSet
321 28 m 1,0,1
 424 38 424 38 497 73 c 1,2,-1
 497 36 l 2,3,4
 497 22 497 22 498 14 c 1,5,6
 422 -8 422 -8 387.5 -11.5 c 128,-1,7
 353 -15 353 -15 321 -16 c 1,8,-1
 321 -124 l 1,9,-1
 288 -124 l 1,10,-1
 288 -14 l 1,11,12
 171 1 171 1 112 68.5 c 128,-1,13
 53 136 53 136 53 263 c 128,-1,14
 53 390 53 390 119 460 c 0,15,16
 185 529 185 529 288 529 c 1,17,-1
 288 604 l 1,18,-1
 321 604 l 1,19,-1
 321 530 l 1,20,21
 409 523 409 523 488 492 c 1,22,23
 486 478 486 478 484 467.5 c 128,-1,24
 482 457 482 457 480 445 c 1,25,26
 447 459 447 459 410.5 471.5 c 128,-1,27
 374 484 374 484 321 489 c 1,28,-1
 321 28 l 1,0,1
120 264 m 2,29,30
 120 155 120 155 166 98 c 128,-1,31
 212 41 212 41 288 30 c 1,32,-1
 288 490 l 1,33,34
 259 490 259 490 229 474 c 128,-1,35
 199 458 199 458 175 429 c 0,36,37
 120 363 120 363 120 265 c 2,38,-1
 120 264 l 2,29,30
EndSplineSet
EndChar

StartChar: sterling
Encoding: 163 163 100
Width: 585
Flags: W
LayerCount: 2
Fore
SplineSet
463 679 m 1,0,1
 410 704 410 704 365 704 c 0,2,3
 288 704 288 704 259 658 c 0,4,5
 238 624 238 624 238 555 c 2,6,-1
 238 404 l 1,7,-1
 351 404 l 1,8,-1
 351 359 l 1,9,-1
 238 359 l 1,10,-1
 238 204 l 2,11,12
 238 162 238 162 213.5 121.5 c 128,-1,13
 189 81 189 81 157 43 c 1,14,-1
 334 33 l 1,15,16
 435 33 435 33 484 77.5 c 128,-1,17
 533 122 533 122 539 195 c 1,18,-1
 539 197 l 2,19,20
 539 281 539 281 487 333 c 1,21,-1
 513 361 l 1,22,23
 553 322 553 322 564.5 279 c 128,-1,24
 576 236 576 236 576 189.5 c 128,-1,25
 576 143 576 143 556 105 c 0,26,27
 536 66 536 66 504 42 c 0,28,29
 446 -2 446 -2 357 -1 c 0,30,31
 349 -1 349 -1 340 -1 c 2,32,-1
 49 -1 l 1,33,-1
 49 42 l 1,34,35
 160 58 160 58 160 204 c 2,36,-1
 160 359 l 1,37,-1
 111 359 l 1,38,-1
 111 404 l 1,39,-1
 160 404 l 1,40,-1
 160 578 l 2,41,42
 160 661 160 661 215.5 704.5 c 128,-1,43
 271 748 271 748 346.5 748 c 128,-1,44
 422 748 422 748 463 722 c 1,45,-1
 463 679 l 1,0,1
EndSplineSet
EndChar

StartChar: yen
Encoding: 165 165 101
Width: 690
Flags: W
LayerCount: 2
Fore
SplineSet
352 328 m 1,0,1
 449 482 449 482 608 731 c 1,2,-1
 692 731 l 1,3,-1
 427 325 l 1,4,-1
 601 325 l 1,5,-1
 601 284 l 1,6,-1
 396 284 l 1,7,-1
 396 115 l 1,8,-1
 601 115 l 1,9,-1
 601 75 l 1,10,-1
 396 75 l 1,11,-1
 396 0 l 1,12,-1
 321 0 l 1,13,-1
 321 75 l 1,14,-1
 118 75 l 1,15,-1
 118 115 l 1,16,-1
 321 115 l 1,17,-1
 321 284 l 1,18,-1
 118 284 l 1,19,-1
 118 325 l 1,20,-1
 289 325 l 1,21,-1
 24 731 l 1,22,-1
 107 731 l 1,23,-1
 352 328 l 1,0,1
EndSplineSet
EndChar

StartChar: section
Encoding: 167 167 102
Width: 576
Flags: W
LayerCount: 2
Fore
SplineSet
245 419 m 1,0,1
 202 419 202 419 168.5 378.5 c 128,-1,2
 135 338 135 338 135 288.5 c 128,-1,3
 135 239 135 239 140 206 c 128,-1,4
 145 173 145 173 164.5 152.5 c 128,-1,5
 184 132 184 132 221.5 123.5 c 128,-1,6
 259 115 259 115 305.5 115 c 128,-1,7
 352 115 352 115 376 125.5 c 128,-1,8
 400 136 400 136 419 156 c 0,9,10
 460 199 460 199 460 258.5 c 128,-1,11
 460 318 460 318 446.5 347.5 c 128,-1,12
 433 377 433 377 406.5 392.5 c 128,-1,13
 380 408 380 408 339.5 412.5 c 128,-1,14
 299 417 299 417 245 419 c 1,0,1
493 594 m 1,15,-1
 474 595 l 1,16,-1
 456 668 l 1,17,18
 348 702 348 702 319 702 c 0,19,20
 260 702 260 702 235 687 c 0,21,22
 201 667 201 667 201 615 c 128,-1,23
 201 563 201 563 241 521 c 128,-1,24
 281 479 281 479 363.5 461 c 128,-1,25
 446 443 446 443 488 399 c 128,-1,26
 530 355 530 355 530 272.5 c 128,-1,27
 530 190 530 190 490.5 144 c 128,-1,28
 451 98 451 98 364 77 c 1,29,30
 456 46 456 46 488 -18 c 0,31,32
 498 -40 498 -40 498 -69.5 c 128,-1,33
 498 -99 498 -99 482 -127 c 0,34,35
 434 -213 434 -213 282 -213 c 0,36,37
 181 -213 181 -213 89 -158 c 1,38,-1
 96 -45 l 1,39,-1
 117 -45 l 1,40,-1
 134 -117 l 1,41,42
 217 -163 217 -163 286.5 -163 c 128,-1,43
 356 -163 356 -163 381 -148 c 128,-1,44
 406 -133 406 -133 417.5 -113.5 c 128,-1,45
 429 -94 429 -94 429 -66 c 0,46,47
 429 -11 429 -11 371 30 c 128,-1,48
 313 71 313 71 233.5 71 c 128,-1,49
 154 71 154 71 110 125.5 c 128,-1,50
 66 180 66 180 66 267 c 0,51,52
 66 331 66 331 98 385 c 0,53,54
 142 459 142 459 230 468 c 1,55,56
 186 490 186 490 158.5 525 c 128,-1,57
 131 560 131 560 131 590 c 0,58,59
 130 660 130 660 164 698 c 0,60,61
 207 746 207 746 309 745.5 c 128,-1,62
 411 745 411 745 503 699 c 1,63,-1
 493 594 l 1,15,-1
EndSplineSet
EndChar

StartChar: dieresis
Encoding: 168 168 103
Width: 222
Flags: W
LayerCount: 2
Fore
SplineSet
252 715 m 1,0,-1
 185 715 l 1,1,-1
 185 634 l 1,2,-1
 252 634 l 1,3,-1
 252 715 l 1,0,-1
46 715 m 1,4,-1
 46 634 l 1,5,-1
 -20 634 l 1,6,-1
 -20 715 l 1,7,-1
 46 715 l 1,4,-1
252 715 m 1,8,-1
 252 634 l 1,9,-1
 185 634 l 1,10,-1
 185 715 l 1,11,-1
 252 715 l 1,8,-1
46 715 m 1,12,-1
 -20 715 l 1,13,-1
 -20 634 l 1,14,-1
 46 634 l 1,15,-1
 46 715 l 1,12,-1
EndSplineSet
EndChar

StartChar: ordfeminine
Encoding: 170 170 104
Width: 277
Flags: W
LayerCount: 2
Fore
SplineSet
194 587 m 1,0,1
 162 580 162 580 139 580 c 0,2,3
 101 580 101 580 86.5 571 c 128,-1,4
 72 562 72 562 72 529.5 c 128,-1,5
 72 497 72 497 88 484 c 128,-1,6
 104 471 104 471 124 471 c 0,7,8
 164 471 164 471 193 501 c 1,9,-1
 194 587 l 1,0,1
225 473 m 1,10,-1
 264 464 l 1,11,-1
 264 453 l 1,12,-1
 207 453 l 1,13,-1
 192 484 l 1,14,15
 152 450 152 450 111 450 c 0,16,17
 39 450 39 450 39 525.5 c 128,-1,18
 39 601 39 601 118 601 c 2,19,-1
 149 601 l 2,20,21
 180 601 180 601 193 614 c 1,22,23
 193 663 193 663 183.5 674.5 c 128,-1,24
 174 686 174 686 163 688.5 c 128,-1,25
 152 691 152 691 129.5 691 c 128,-1,26
 107 691 107 691 78 682 c 1,27,28
 74 670 74 670 70 645 c 1,29,-1
 59 645 l 1,30,-1
 56 697 l 1,31,32
 90 714 90 714 135 714 c 128,-1,33
 180 714 180 714 195 699 c 0,34,35
 225 671 225 671 225 615 c 2,36,-1
 225 473 l 1,10,-1
EndSplineSet
EndChar

StartChar: guillemotleft
Encoding: 171 171 105
Width: 562
Flags: W
LayerCount: 2
Fore
SplineSet
65 282 m 256,0,1
 65 294 65 294 77 302 c 2,2,-1
 247 423 l 1,3,4
 247 409 247 409 246 396 c 128,-1,5
 245 383 245 383 235 378 c 1,6,-1
 100 282 l 1,7,8
 128 260 128 260 177 226.5 c 128,-1,9
 226 193 226 193 236 186 c 128,-1,10
 246 179 246 179 247 140 c 1,11,-1
 78 262 l 1,12,13
 65 270 65 270 65 282 c 256,0,1
313 282 m 256,14,15
 313 294 313 294 325 302 c 2,16,-1
 495 423 l 1,17,18
 495 409 495 409 494 396 c 128,-1,19
 493 383 493 383 483 378 c 1,20,-1
 348 282 l 1,21,22
 376 260 376 260 425 226.5 c 128,-1,23
 474 193 474 193 484 186 c 128,-1,24
 494 179 494 179 495 140 c 1,25,-1
 326 262 l 1,26,27
 313 270 313 270 313 282 c 256,14,15
EndSplineSet
EndChar

StartChar: degree
Encoding: 176 176 106
Width: 400
Flags: W
LayerCount: 2
Fore
SplineSet
111 663 m 0,0,1
 96 638 96 638 96 591 c 0,2,3
 96 468 96 468 207 468 c 0,4,5
 274 468 274 468 306 521 c 0,6,7
 322 546 322 546 322 592 c 0,8,9
 322 670 322 670 270 700 c 0,10,11
 244 714 244 714 207 715 c 1,12,13
 142 715 142 715 111 663 c 0,0,1
207 452 m 0,14,15
 68 452 68 452 68 591 c 0,16,17
 68 660 68 660 104.5 695 c 128,-1,18
 141 730 141 730 207 731 c 1,19,20
 281 730 281 730 314 695 c 128,-1,21
 347 660 347 660 347 591 c 0,22,23
 348 492 348 492 272 462 c 0,24,25
 246 452 246 452 207 452 c 0,14,15
EndSplineSet
EndChar

StartChar: twosuperior
Encoding: 178 178 107
Width: 368
Flags: W
LayerCount: 2
Fore
SplineSet
66 609 m 1,0,1
 64 628 64 628 61 672 c 1,2,3
 69 685 69 685 93 698 c 0,4,5
 145 728 145 728 187 728 c 0,6,7
 257 728 257 728 289.5 695 c 128,-1,8
 322 662 322 662 322 618 c 0,9,10
 322 527 322 527 216 477 c 1,11,12
 164 451 164 451 140 425 c 0,13,14
 97 378 97 378 95 327 c 1,15,-1
 305 327 l 1,16,-1
 317 375 l 1,17,-1
 330 375 l 1,18,-1
 336 299 l 1,19,-1
 46 299 l 1,20,21
 49 413 49 413 144 476 c 0,22,23
 173 495 173 495 210 513.5 c 128,-1,24
 247 532 247 532 265.5 559.5 c 128,-1,25
 284 587 284 587 284 617.5 c 128,-1,26
 284 648 284 648 261.5 673 c 128,-1,27
 239 698 239 698 188 700 c 1,28,29
 128 700 128 700 87 649 c 1,30,31
 85 639 85 639 83 629 c 128,-1,32
 81 619 81 619 78 609 c 1,33,-1
 66 609 l 1,0,1
EndSplineSet
EndChar

StartChar: threesuperior
Encoding: 179 179 108
Width: 361
Flags: W
LayerCount: 2
Fore
SplineSet
41 690 m 1,0,1
 120 728 120 728 165 728 c 0,2,3
 242 728 242 728 281 704 c 128,-1,4
 320 680 320 680 320 635.5 c 128,-1,5
 320 591 320 591 295.5 563.5 c 128,-1,6
 271 536 271 536 234 533 c 1,7,8
 284 527 284 527 316 497 c 128,-1,9
 348 467 348 467 348 418 c 128,-1,10
 348 369 348 369 300 331.5 c 128,-1,11
 252 294 252 294 162.5 294 c 128,-1,12
 73 294 73 294 29 316 c 1,13,14
 32 368 32 368 34 382 c 1,15,-1
 46 382 l 1,16,-1
 56 338 l 1,17,18
 122 318 122 318 164 318 c 0,19,20
 236 318 236 318 272 358 c 0,21,22
 299 388 299 388 299 421 c 128,-1,23
 299 454 299 454 268 483 c 128,-1,24
 237 512 237 512 182 512 c 2,25,-1
 132 512 l 1,26,-1
 132 540 l 1,27,-1
 182 540 l 2,28,29
 256 540 256 540 272 592 c 0,30,31
 276 607 276 607 277 622 c 1,32,33
 277 654 277 654 253 677 c 128,-1,34
 229 700 229 700 186 700 c 128,-1,35
 143 700 143 700 67 670 c 1,36,37
 65 660 65 660 62.5 649.5 c 128,-1,38
 60 639 60 639 58 629 c 1,39,-1
 45 628 l 1,40,-1
 41 690 l 1,0,1
EndSplineSet
EndChar

StartChar: acute
Encoding: 180 180 109
Width: 222
Flags: W
LayerCount: 2
Fore
SplineSet
89 639 m 1,0,-1
 138 751 l 1,1,-1
 218 751 l 1,2,3
 152 663 152 663 131 639 c 1,4,-1
 89 639 l 1,0,-1
EndSplineSet
EndChar

StartChar: glyph110
Encoding: 183 183 110
Width: 290
Flags: W
LayerCount: 2
Fore
SplineSet
106 391 m 1,0,-1
 191 391 l 1,1,-1
 191 306 l 1,2,-1
 106 306 l 1,3,-1
 106 391 l 1,0,-1
EndSplineSet
EndChar

StartChar: cedilla
Encoding: 184 184 111
Width: 245
Flags: W
LayerCount: 2
Fore
SplineSet
125 -224 m 1,0,1
 87 -224 87 -224 61 -216 c 1,2,-1
 61 -196 l 1,3,4
 86 -206 86 -206 101 -206 c 0,5,6
 132 -206 132 -206 146 -198 c 0,7,8
 170 -184 170 -184 170 -151 c 0,9,10
 170 -91 170 -91 109 -91 c 0,11,12
 90 -91 90 -91 72 -95 c 1,13,14
 78 -90 78 -90 90.5 -63.5 c 128,-1,15
 103 -37 103 -37 123 0 c 1,16,-1
 130 0 l 1,17,-1
 89 -78 l 1,18,19
 101 -77 101 -77 112 -77 c 0,20,21
 153 -77 153 -77 179.5 -97 c 128,-1,22
 206 -117 206 -117 206 -151 c 0,23,24
 206 -215 206 -215 125 -224 c 1,0,1
EndSplineSet
EndChar

StartChar: onesuperior
Encoding: 185 185 112
Width: 317
Flags: W
LayerCount: 2
Fore
SplineSet
156 376 m 1,0,-1
 156 699 l 1,1,2
 133 697 133 697 113 688 c 1,3,-1
 113 704 l 1,4,5
 122 711 122 711 131.5 715.5 c 128,-1,6
 141 720 141 720 149 727 c 1,7,-1
 190 727 l 1,8,-1
 190 376 l 1,9,-1
 230 367 l 1,10,-1
 230 356 l 1,11,-1
 116 356 l 1,12,-1
 116 367 l 1,13,-1
 156 376 l 1,0,-1
EndSplineSet
EndChar

StartChar: ordmasculine
Encoding: 186 186 113
Width: 400
Flags: W
LayerCount: 2
Fore
SplineSet
111 663 m 0,0,1
 96 638 96 638 96 591 c 0,2,3
 96 468 96 468 207 468 c 0,4,5
 274 468 274 468 306 521 c 0,6,7
 322 546 322 546 322 592 c 0,8,9
 322 670 322 670 270 700 c 0,10,11
 244 714 244 714 207 715 c 1,12,13
 142 715 142 715 111 663 c 0,0,1
207 452 m 0,14,15
 68 452 68 452 68 591 c 0,16,17
 68 660 68 660 104.5 695 c 128,-1,18
 141 730 141 730 207 731 c 1,19,20
 281 730 281 730 314 695 c 128,-1,21
 347 660 347 660 347 591 c 0,22,23
 348 492 348 492 272 462 c 0,24,25
 246 452 246 452 207 452 c 0,14,15
EndSplineSet
EndChar

StartChar: guillemotright
Encoding: 187 187 114
Width: 555
Flags: W
LayerCount: 2
Fore
SplineSet
509 282 m 256,0,1
 509 270 509 270 496 262 c 1,2,-1
 327 140 l 1,3,4
 327 178 327 178 337.5 185.5 c 128,-1,5
 348 193 348 193 366 205 c 0,6,7
 446 260 446 260 474 282 c 1,8,-1
 339 378 l 1,9,10
 329 383 329 383 328 396 c 128,-1,11
 327 409 327 409 327 423 c 1,12,-1
 497 302 l 2,13,14
 509 294 509 294 509 282 c 256,0,1
261 282 m 256,15,16
 261 270 261 270 248 262 c 1,17,-1
 79 140 l 1,18,19
 79 178 79 178 89.5 185.5 c 128,-1,20
 100 193 100 193 118 205 c 0,21,22
 198 260 198 260 226 282 c 1,23,-1
 91 378 l 1,24,25
 81 383 81 383 80 396 c 128,-1,26
 79 409 79 409 79 423 c 1,27,-1
 249 302 l 2,28,29
 261 294 261 294 261 282 c 256,15,16
EndSplineSet
EndChar

StartChar: questiondown
Encoding: 191 191 115
Width: 582
Flags: W
LayerCount: 2
Fore
SplineSet
386 433 m 1,0,-1
 301 433 l 1,1,-1
 301 517 l 1,2,-1
 386 517 l 1,3,-1
 386 433 l 1,0,-1
202.5 -146 m 128,-1,5
 244 -181 244 -181 323.5 -181 c 128,-1,6
 403 -181 403 -181 481 -155 c 1,7,-1
 468 -16 l 1,8,-1
 489 -16 l 1,9,-1
 529 -201 l 1,10,11
 445 -232 445 -232 337 -232 c 0,12,13
 163 -232 163 -232 109 -136 c 0,14,15
 90 -102 90 -102 90 -63 c 128,-1,16
 90 -24 90 -24 100 1.5 c 128,-1,17
 110 27 110 27 126.5 48 c 128,-1,18
 143 69 143 69 163 86 c 0,19,20
 182 103 182 103 204 120 c 0,21,22
 261 165 261 165 285 194 c 0,23,24
 324 242 324 242 329 296 c 1,25,-1
 369 296 l 1,26,27
 360 173 360 173 254 96 c 1,28,29
 208 61 208 61 193 39 c 0,30,31
 161 -5 161 -5 161 -58 c 128,-1,4
 161 -111 161 -111 202.5 -146 c 128,-1,5
EndSplineSet
EndChar

StartChar: AE
Encoding: 198 198 122
Width: 1051
Flags: W
LayerCount: 2
Fore
SplineSet
1003 716 m 1,0,1
 1002 706 1002 706 995 576 c 1,2,-1
 975 576 l 1,3,-1
 958 674 l 1,4,-1
 655 674 l 1,5,-1
 657 385 l 1,6,-1
 912 385 l 1,7,-1
 912 342 l 1,8,-1
 657 342 l 1,9,-1
 658 43 l 1,10,-1
 991 43 l 1,11,-1
 1008 120 l 1,12,-1
 1027 120 l 1,13,-1
 1027 0 l 1,14,-1
 588 0 l 1,15,-1
 588 273 l 1,16,-1
 293 273 l 1,17,-1
 119 42 l 1,18,-1
 211 20 l 1,19,-1
 211 0 l 1,20,-1
 -11 0 l 1,21,-1
 -11 20 l 1,22,-1
 59 37 l 1,23,-1
 556 716 l 1,24,-1
 1003 716 l 1,0,1
317 315 m 1,25,-1
 588 315 l 1,26,-1
 588 687 l 1,27,-1
 317 315 l 1,25,-1
EndSplineSet
EndChar

StartChar: Oslash
Encoding: 216 216 138
Width: 824
Flags: W
LayerCount: 2
Fore
SplineSet
273 705.5 m 128,-1,1
 342 731 342 731 416 731 c 128,-1,2
 490 731 490 731 560 717 c 1,3,-1
 568 736 l 1,4,-1
 587 736 l 1,5,-1
 577 712 l 1,6,7
 693 668 693 668 745.5 580.5 c 128,-1,8
 798 493 798 493 798 356 c 0,9,10
 798 92 798 92 596 9 c 0,11,12
 525 -20 525 -20 424 -20 c 0,13,14
 377 -20 377 -20 293 -6 c 1,15,-1
 289 -20 l 1,16,-1
 272 -20 l 1,17,-1
 279 -5 l 1,18,19
 52 71 52 71 48 356 c 1,20,21
 48 530 48 530 154 632 c 0,22,0
 204 680 204 680 273 705.5 c 128,-1,1
542 669 m 1,23,24
 473 687 473 687 441.5 687 c 128,-1,25
 410 687 410 687 384 686 c 0,26,27
 358 684 358 684 324 674 c 0,28,29
 241 650 241 650 191 588 c 1,30,31
 125 504 125 504 125 357 c 0,32,33
 125 131 125 131 295 43 c 1,34,-1
 424 367 l 1,35,-1
 542 669 l 1,23,24
312 38 m 1,36,37
 375 25 375 25 404.5 25 c 128,-1,38
 434 25 434 25 461 26.5 c 128,-1,39
 488 28 488 28 522 38 c 0,40,41
 609 62 609 62 661 124 c 0,42,43
 732 209 732 209 732 357 c 0,44,45
 732 530 732 530 622 620 c 0,46,47
 590 646 590 646 558 664 c 1,48,-1
 312 38 l 1,36,37
EndSplineSet
EndChar

StartChar: germandbls
Encoding: 223 223 144
Width: 592
Flags: W
LayerCount: 2
Fore
SplineSet
280 -8 m 1,0,-1
 292 133 l 1,1,-1
 313 133 l 1,2,-1
 332 47 l 1,3,4
 453 89 453 89 453 205 c 0,5,6
 453 231 453 231 450 254 c 0,7,8
 440 332 440 332 283 372 c 1,9,-1
 283 425 l 1,10,11
 359 428 359 428 399.5 460.5 c 128,-1,12
 440 493 440 493 440 565 c 128,-1,13
 440 637 440 637 398.5 668.5 c 128,-1,14
 357 700 357 700 302.5 700 c 128,-1,15
 248 700 248 700 222 689 c 128,-1,16
 196 678 196 678 182 654 c 0,17,18
 159 614 159 614 159 498 c 2,19,-1
 159 0 l 1,20,-1
 11 0 l 1,21,-1
 11 21 l 1,22,-1
 89 40 l 1,23,-1
 89 450 l 2,24,25
 89 513 89 513 93 568 c 128,-1,26
 97 623 97 623 116.5 664 c 128,-1,27
 136 705 136 705 176.5 728.5 c 128,-1,28
 217 752 217 752 291 752 c 0,29,30
 425 752 425 752 477 660 c 0,31,32
 498 623 498 623 498 565 c 128,-1,33
 498 507 498 507 460.5 454.5 c 128,-1,34
 423 402 423 402 357 395 c 1,35,36
 427 387 427 387 479 331.5 c 128,-1,37
 531 276 531 276 531 205 c 0,38,39
 530 80 530 80 448 30 c 1,40,41
 388 -8 388 -8 280 -8 c 1,0,-1
EndSplineSet
EndChar

StartChar: ae
Encoding: 230 230 151
Width: 846
Flags: W
LayerCount: 2
Fore
SplineSet
836 71 m 1,0,1
 762 -16 762 -16 640 -16 c 0,2,3
 574 -16 574 -16 525.5 8 c 128,-1,4
 477 32 477 32 436 74 c 1,5,6
 357 -16 357 -16 246 -16 c 0,7,8
 40 -16 40 -16 40 217 c 0,9,10
 40 221 40 221 40 225 c 1,11,-1
 408 260 l 1,12,13
 408 313 408 313 405 356 c 128,-1,14
 402 399 402 399 386 429 c 0,15,16
 354 491 354 491 245 491 c 0,17,18
 169 491 169 491 112 434 c 0,19,20
 98 420 98 420 90 409 c 1,21,-1
 46 443 l 1,22,23
 85 489 85 489 138 511 c 0,24,25
 191 532 191 532 245 532 c 0,26,27
 366 532 366 532 445 440 c 1,28,29
 526 532 526 532 639 532 c 0,30,31
 845 532 845 532 845 287 c 0,32,33
 845 278 845 278 845 270 c 1,34,35
 645 270 645 270 477 254 c 1,36,37
 477 201 477 201 480 158 c 0,38,39
 482 116 482 116 498 86 c 0,40,41
 530 25 530 25 640 25 c 0,42,43
 715 25 715 25 772 82 c 0,44,45
 786 96 786 96 794 107 c 1,46,-1
 836 71 l 1,0,1
787 320 m 1,47,48
 776 435 776 435 704 472 c 0,49,50
 677 486 677 486 636 486 c 128,-1,51
 595 486 595 486 566 467 c 128,-1,52
 537 448 537 448 520 420 c 0,53,54
 489 368 489 368 486 304 c 1,55,-1
 787 320 l 1,47,48
99 181 m 1,56,57
 101 129 101 129 138 80 c 0,58,59
 175 30 175 30 250 30 c 0,60,61
 326 30 326 30 366 94 c 0,62,63
 395 139 395 139 400 210 c 1,64,-1
 99 181 l 1,56,57
EndSplineSet
EndChar

StartChar: oslash
Encoding: 248 248 167
Width: 585
Flags: W
LayerCount: 2
Fore
SplineSet
156 -19 m 1,0,-1
 153 -20 l 1,1,-1
 148 -20 l 1,2,-1
 452 533 l 1,3,-1
 468 533 l 1,4,-1
 164 -19 l 1,5,-1
 156 -19 l 1,0,-1
147 393 m 128,-1,7
 131 347 131 347 131 263 c 128,-1,8
 131 179 131 179 148 132.5 c 128,-1,9
 165 86 165 86 191 63 c 128,-1,10
 217 40 217 40 248 34.5 c 128,-1,11
 279 29 279 29 304 29 c 128,-1,12
 329 29 329 29 356 33 c 1,13,14
 384 36 384 36 409 58 c 0,15,16
 468 109 468 109 468 259 c 128,-1,17
 468 409 468 409 408 458 c 0,18,19
 382 479 382 479 352.5 483 c 128,-1,20
 323 487 323 487 297 487 c 128,-1,21
 271 487 271 487 242 484 c 128,-1,22
 213 481 213 481 188 460 c 128,-1,6
 163 439 163 439 147 393 c 128,-1,7
545 252 m 0,23,24
 545 119 545 119 492 51 c 128,-1,25
 439 -17 439 -17 308 -17 c 1,26,27
 178 -18 178 -18 115 66 c 0,28,29
 60 139 60 139 60 267.5 c 128,-1,30
 60 396 60 396 115 464.5 c 128,-1,31
 170 533 170 533 300 533 c 0,32,33
 545 533 545 533 545 252 c 0,23,24
EndSplineSet
EndChar

StartChar: dotlessi
Encoding: 305 305 174
Width: 261
Flags: W
LayerCount: 2
Fore
SplineSet
22 496 m 1,0,-1
 22 517 l 1,1,-1
 170 517 l 1,2,-1
 170 40 l 1,3,-1
 250 21 l 1,4,-1
 250 0 l 1,5,-1
 22 0 l 1,6,-1
 22 21 l 1,7,-1
 102 40 l 1,8,-1
 102 477 l 1,9,-1
 22 496 l 1,0,-1
EndSplineSet
EndChar

StartChar: florin
Encoding: 402 402 180
Width: 322
Flags: W
LayerCount: 2
Fore
SplineSet
423 697 m 1,0,1
 346 725 346 725 313 727 c 1,2,3
 220 726 220 726 192 680 c 1,4,5
 180 658 180 658 178.5 628.5 c 128,-1,6
 177 599 177 599 177 563 c 2,7,-1
 177 517 l 1,8,-1
 306 517 l 1,9,-1
 306 474 l 1,10,-1
 177 474 l 1,11,-1
 177 -21 l 1,12,13
 171 -190 171 -190 48 -215 c 1,14,-1
 48 -170 l 1,15,16
 80 -140 80 -140 91.5 -113.5 c 128,-1,17
 103 -87 103 -87 113 -28 c 1,18,-1
 113 474 l 1,19,-1
 27 474 l 1,20,-1
 27 517 l 1,21,-1
 113 517 l 1,22,-1
 113 563 l 2,23,24
 113 685 113 685 162 732 c 128,-1,25
 211 779 211 779 312 779 c 0,26,27
 357 779 357 779 422 748 c 1,28,-1
 423 697 l 1,0,1
EndSplineSet
EndChar

StartChar: circumflex
Encoding: 710 710 181
Width: 245
Flags: W
LayerCount: 2
Fore
SplineSet
251 625 m 1,0,-1
 208 625 l 1,1,-1
 125 733 l 1,2,-1
 42 625 l 1,3,-1
 -1 625 l 1,4,-1
 102 754 l 1,5,-1
 148 754 l 1,6,-1
 251 625 l 1,0,-1
EndSplineSet
EndChar

StartChar: caron
Encoding: 711 711 182
Width: 241
Flags: W
LayerCount: 2
Fore
SplineSet
148 625 m 1,0,-1
 102 625 l 1,1,-1
 -1 754 l 1,2,-1
 42 754 l 1,3,-1
 125 646 l 1,4,-1
 208 754 l 1,5,-1
 251 754 l 1,6,-1
 148 625 l 1,0,-1
EndSplineSet
EndChar

StartChar: ring
Encoding: 730 730 183
Width: 400
Flags: W
LayerCount: 2
Fore
SplineSet
111 663 m 0,0,1
 96 638 96 638 96 591 c 0,2,3
 96 468 96 468 207 468 c 0,4,5
 274 468 274 468 306 521 c 0,6,7
 322 546 322 546 322 592 c 0,8,9
 322 670 322 670 270 700 c 0,10,11
 244 714 244 714 207 715 c 1,12,13
 142 715 142 715 111 663 c 0,0,1
207 452 m 0,14,15
 68 452 68 452 68 591 c 0,16,17
 68 660 68 660 104.5 695 c 128,-1,18
 141 730 141 730 207 731 c 1,19,20
 281 730 281 730 314 695 c 128,-1,21
 347 660 347 660 347 591 c 0,22,23
 348 492 348 492 272 462 c 0,24,25
 246 452 246 452 207 452 c 0,14,15
EndSplineSet
EndChar

StartChar: tilde
Encoding: 732 732 184
Width: 222
Flags: W
LayerCount: 2
Fore
SplineSet
157 701.5 m 128,-1,1
 177 697 177 697 207 697 c 128,-1,2
 237 697 237 697 261 707 c 1,3,-1
 261 669 l 1,4,5
 232 646 232 646 204 646 c 0,6,7
 167 646 167 646 118 659 c 128,-1,8
 69 672 69 672 38.5 672 c 128,-1,9
 8 672 8 672 -17 662 c 1,10,-1
 -18 705 l 1,11,12
 -5 725 -5 725 29 725 c 128,-1,13
 63 725 63 725 100 715.5 c 128,-1,0
 137 706 137 706 157 701.5 c 128,-1,1
EndSplineSet
EndChar

StartChar: gravecmb
Encoding: 768 768 185
Width: 222
Flags: W
LayerCount: 2
Fore
SplineSet
82 751 m 1,0,-1
 132 639 l 1,1,-1
 90 639 l 1,2,-1
 4 751 l 1,3,-1
 82 751 l 1,0,-1
EndSplineSet
EndChar

StartChar: acutecmb
Encoding: 769 769 186
Width: 222
Flags: W
LayerCount: 2
Fore
SplineSet
89 639 m 1,0,-1
 138 751 l 1,1,-1
 218 751 l 1,2,3
 152 663 152 663 131 639 c 1,4,-1
 89 639 l 1,0,-1
EndSplineSet
EndChar

StartChar: circumflexcmb
Encoding: 770 770 187
Width: 245
Flags: W
LayerCount: 2
Fore
SplineSet
251 625 m 1,0,-1
 208 625 l 1,1,-1
 125 733 l 1,2,-1
 42 625 l 1,3,-1
 -1 625 l 1,4,-1
 102 754 l 1,5,-1
 148 754 l 1,6,-1
 251 625 l 1,0,-1
EndSplineSet
EndChar

StartChar: tildecmb
Encoding: 771 771 188
Width: 222
Flags: W
LayerCount: 2
Fore
SplineSet
157 701.5 m 128,-1,1
 177 697 177 697 207 697 c 128,-1,2
 237 697 237 697 261 707 c 1,3,-1
 261 669 l 1,4,5
 232 646 232 646 204 646 c 0,6,7
 167 646 167 646 118 659 c 128,-1,8
 69 672 69 672 38.5 672 c 128,-1,9
 8 672 8 672 -17 662 c 1,10,-1
 -18 705 l 1,11,12
 -5 725 -5 725 29 725 c 128,-1,13
 63 725 63 725 100 715.5 c 128,-1,0
 137 706 137 706 157 701.5 c 128,-1,1
EndSplineSet
EndChar

StartChar: ringcmb
Encoding: 778 778 190
Width: 400
Flags: W
LayerCount: 2
Fore
SplineSet
111 663 m 0,0,1
 96 638 96 638 96 591 c 0,2,3
 96 468 96 468 207 468 c 0,4,5
 274 468 274 468 306 521 c 0,6,7
 322 546 322 546 322 592 c 0,8,9
 322 670 322 670 270 700 c 0,10,11
 244 714 244 714 207 715 c 1,12,13
 142 715 142 715 111 663 c 0,0,1
207 452 m 0,14,15
 68 452 68 452 68 591 c 0,16,17
 68 660 68 660 104.5 695 c 128,-1,18
 141 730 141 730 207 731 c 1,19,20
 281 730 281 730 314 695 c 128,-1,21
 347 660 347 660 347 591 c 0,22,23
 348 492 348 492 272 462 c 0,24,25
 246 452 246 452 207 452 c 0,14,15
EndSplineSet
EndChar

StartChar: caroncmb
Encoding: 780 780 191
Width: 241
Flags: W
LayerCount: 2
Fore
SplineSet
148 625 m 1,0,-1
 102 625 l 1,1,-1
 -1 754 l 1,2,-1
 42 754 l 1,3,-1
 125 646 l 1,4,-1
 208 754 l 1,5,-1
 251 754 l 1,6,-1
 148 625 l 1,0,-1
EndSplineSet
EndChar

StartChar: cedillacmb
Encoding: 807 807 192
Width: 245
Flags: W
LayerCount: 2
Fore
SplineSet
125 -224 m 1,0,1
 87 -224 87 -224 61 -216 c 1,2,-1
 61 -196 l 1,3,4
 86 -206 86 -206 101 -206 c 0,5,6
 132 -206 132 -206 146 -198 c 0,7,8
 170 -184 170 -184 170 -151 c 0,9,10
 170 -91 170 -91 109 -91 c 0,11,12
 90 -91 90 -91 72 -95 c 1,13,14
 78 -90 78 -90 90.5 -63.5 c 128,-1,15
 103 -37 103 -37 123 0 c 1,16,-1
 130 0 l 1,17,-1
 89 -78 l 1,18,19
 101 -77 101 -77 112 -77 c 0,20,21
 153 -77 153 -77 179.5 -97 c 128,-1,22
 206 -117 206 -117 206 -151 c 0,23,24
 206 -215 206 -215 125 -224 c 1,0,1
EndSplineSet
EndChar

StartChar: endash
Encoding: 8211 8211 194
Width: 500
Flags: W
LayerCount: 2
Fore
SplineSet
511 304 m 1,0,-1
 511 253 l 1,1,-1
 11 253 l 1,2,-1
 11 304 l 1,3,-1
 511 304 l 1,0,-1
EndSplineSet
EndChar

StartChar: emdash
Encoding: 8212 8212 195
Width: 1000
Flags: W
LayerCount: 2
Fore
SplineSet
143 304 m 1,0,-1
 902 304 l 1,1,-1
 902 253 l 1,2,-1
 143 253 l 1,3,-1
 143 304 l 1,0,-1
EndSplineSet
EndChar

StartChar: quoteleft
Encoding: 8216 8216 196
Width: 278
Flags: W
LayerCount: 2
Fore
SplineSet
100 448 m 1,0,1
 91 502 91 502 91 548 c 0,2,3
 91 634 91 634 122 674 c 128,-1,4
 153 714 153 714 200 721 c 1,5,-1
 200 682 l 1,6,7
 132 674 132 674 126 586 c 0,8,9
 124 560 124 560 125 533 c 1,10,-1
 188 533 l 1,11,-1
 188 448 l 1,12,-1
 100 448 l 1,0,1
EndSplineSet
EndChar

StartChar: quoteright
Encoding: 8217 8217 197
Width: 278
Flags: W
LayerCount: 2
Fore
SplineSet
190 722 m 1,0,1
 198 664 198 664 198 620 c 0,2,3
 198 538 198 538 167.5 498.5 c 128,-1,4
 137 459 137 459 89 449 c 1,5,-1
 89 485 l 1,6,7
 158 492 158 492 162 584 c 0,8,9
 163 610 163 610 163 637 c 1,10,-1
 103 637 l 1,11,-1
 103 722 l 1,12,-1
 190 722 l 1,0,1
EndSplineSet
EndChar

StartChar: quotesinglbase
Encoding: 8218 8218 198
Width: 278
Flags: W
LayerCount: 2
Fore
SplineSet
193 84 m 1,0,1
 201 26 201 26 201 -17 c 0,2,3
 201 -99 201 -99 170.5 -139.5 c 128,-1,4
 140 -180 140 -180 92 -187 c 1,5,-1
 92 -152 l 1,6,7
 161 -145 161 -145 165 -52 c 0,8,9
 166 -26 166 -26 166 0 c 1,10,-1
 106 0 l 1,11,-1
 106 84 l 1,12,-1
 193 84 l 1,0,1
EndSplineSet
EndChar

StartChar: quotedblleft
Encoding: 8220 8220 199
Width: 440
Flags: W
LayerCount: 2
Fore
SplineSet
183 683 m 1,0,1
 133 676 133 676 118 632 c 0,2,3
 108 603 108 603 108 533 c 1,4,-1
 170 533 l 1,5,-1
 170 448 l 1,6,-1
 83 448 l 1,7,8
 73 504 73 504 73 548 c 0,9,10
 73 630 73 630 104.5 672 c 128,-1,11
 136 714 136 714 183 721 c 1,12,-1
 183 683 l 1,0,1
290 448 m 1,13,14
 283 516 283 516 283 555 c 0,15,16
 283 633 283 633 313.5 673.5 c 128,-1,17
 344 714 344 714 391 721 c 1,18,-1
 391 683 l 1,19,20
 324 674 324 674 318 586 c 0,21,22
 316 560 316 560 317 533 c 1,23,-1
 377 533 l 1,24,-1
 377 448 l 1,25,-1
 290 448 l 1,13,14
EndSplineSet
EndChar

StartChar: quotedblright
Encoding: 8221 8221 200
Width: 444
Flags: W
LayerCount: 2
Fore
SplineSet
378 722 m 1,0,1
 387 677 387 677 387 626 c 0,2,3
 387 538 387 538 357 498 c 128,-1,4
 327 458 327 458 278 449 c 1,5,-1
 278 485 l 1,6,7
 347 492 347 492 351 584 c 0,8,9
 352 610 352 610 352 637 c 1,10,-1
 290 637 l 1,11,-1
 290 722 l 1,12,-1
 378 722 l 1,0,1
171 722 m 1,13,14
 179 645 179 645 179 610 c 0,15,16
 179 538 179 538 148.5 498.5 c 128,-1,17
 118 459 118 459 69 449 c 1,18,-1
 69 485 l 1,19,20
 136 492 136 492 142 584 c 0,21,22
 144 610 144 610 144 637 c 1,23,-1
 84 637 l 1,24,-1
 84 722 l 1,25,-1
 171 722 l 1,13,14
EndSplineSet
EndChar

StartChar: quotedblbase
Encoding: 8222 8222 201
Width: 487
Flags: W
LayerCount: 2
Fore
SplineSet
102 84 m 1,0,-1
 188 84 l 1,1,2
 197 24 197 24 197 -18 c 0,3,4
 197 -100 197 -100 166.5 -140 c 128,-1,5
 136 -180 136 -180 88 -187 c 1,6,-1
 88 -152 l 1,7,8
 156 -144 156 -144 160 -52 c 0,9,10
 161 -26 161 -26 161 0 c 1,11,-1
 102 0 l 1,12,-1
 102 84 l 1,0,-1
387 -1 m 1,13,-1
 328 0 l 1,14,-1
 328 84 l 1,15,-1
 415 84 l 1,16,17
 425 22 425 22 425 -20 c 0,18,19
 425 -100 425 -100 394 -140 c 128,-1,20
 363 -180 363 -180 315 -187 c 1,21,-1
 315 -152 l 1,22,23
 383 -145 383 -145 386 -54 c 0,24,25
 387 -28 387 -28 387 -1 c 1,13,-1
EndSplineSet
EndChar

StartChar: bullet
Encoding: 8226 8226 202
Width: 500
Flags: W
LayerCount: 2
Fore
SplineSet
131 492 m 128,-1,1
 184 545 184 545 259 545 c 128,-1,2
 334 545 334 545 387 492 c 128,-1,3
 440 439 440 439 440 364 c 128,-1,4
 440 289 440 289 387 236 c 128,-1,5
 334 183 334 183 259 183 c 128,-1,6
 184 183 184 183 131 236 c 128,-1,7
 78 289 78 289 78 364 c 128,-1,0
 78 439 78 439 131 492 c 128,-1,1
EndSplineSet
EndChar

StartChar: ellipsis
Encoding: 8230 8230 203
Width: 813
Flags: W
LayerCount: 2
Fore
SplineSet
93 83 m 1,0,-1
 178 83 l 1,1,-1
 178 -1 l 1,2,-1
 93 -1 l 1,3,-1
 93 83 l 1,0,-1
387 83 m 1,4,-1
 472 83 l 1,5,-1
 472 -1 l 1,6,-1
 387 -1 l 1,7,-1
 387 83 l 1,4,-1
681 83 m 1,8,-1
 765 83 l 1,9,-1
 765 -1 l 1,10,-1
 681 -1 l 1,11,-1
 681 83 l 1,8,-1
EndSplineSet
EndChar

StartChar: guilsinglleft
Encoding: 8249 8249 204
Width: 306
Flags: W
LayerCount: 2
Fore
SplineSet
69 282 m 256,0,1
 69 294 69 294 81 302 c 2,2,-1
 251 423 l 1,3,4
 251 409 251 409 250 396 c 128,-1,5
 249 383 249 383 239 378 c 1,6,-1
 104 282 l 1,7,8
 132 260 132 260 181 226.5 c 128,-1,9
 230 193 230 193 240 186 c 128,-1,10
 250 179 250 179 251 140 c 1,11,-1
 82 262 l 1,12,13
 69 270 69 270 69 282 c 256,0,1
EndSplineSet
EndChar

StartChar: guilsinglright
Encoding: 8250 8250 205
Width: 311
Flags: W
LayerCount: 2
Fore
SplineSet
257 282 m 256,0,1
 257 270 257 270 244 262 c 1,2,-1
 75 140 l 1,3,4
 75 178 75 178 85.5 185.5 c 128,-1,5
 96 193 96 193 114 205 c 0,6,7
 194 260 194 260 222 282 c 1,8,-1
 87 378 l 1,9,10
 77 383 77 383 76 396 c 128,-1,11
 75 409 75 409 75 423 c 1,12,-1
 245 302 l 2,13,14
 257 294 257 294 257 282 c 256,0,1
EndSplineSet
EndChar

StartChar: fraction
Encoding: 8260 8260 206
Width: 347
Flags: W
LayerCount: 2
Fore
SplineSet
-2 -19 m 1,0,-1
 -6 -20 l 1,1,-1
 -11 -20 l 1,2,-1
 340 753 l 1,3,-1
 357 753 l 1,4,-1
 6 -19 l 1,5,-1
 -2 -19 l 1,0,-1
EndSplineSet
EndChar

StartChar: Euro
Encoding: 8364 8364 207
Width: 615
Flags: W
LayerCount: 2
Fore
SplineSet
597 672 m 1,0,1
 478 725 478 725 415 725 c 0,2,3
 377 725 377 725 348 718 c 0,4,5
 318 710 318 710 289 686 c 0,6,7
 222 629 222 629 195 481 c 1,8,-1
 446 481 l 1,9,-1
 439 460 l 1,10,-1
 195 460 l 1,11,-1
 191 379 l 1,12,13
 191 340 191 340 196 293 c 1,14,-1
 391 293 l 1,15,16
 388 276 388 276 386 272 c 1,17,-1
 199 272 l 1,18,19
 220 188 220 188 252.5 143.5 c 128,-1,20
 285 99 285 99 321 76 c 128,-1,21
 357 53 357 53 412 53 c 0,22,23
 509 53 509 53 605 130 c 1,24,-1
 605 60 l 1,25,26
 518 0 518 0 409 0 c 128,-1,27
 300 0 300 0 222.5 72 c 128,-1,28
 145 144 145 144 113 272 c 1,29,-1
 40 272 l 1,30,-1
 54 293 l 1,31,-1
 112 293 l 1,32,33
 110 346 110 346 110 389 c 128,-1,34
 110 432 110 432 113 460 c 1,35,-1
 40 460 l 1,36,-1
 53 481 l 1,37,-1
 114 481 l 1,38,39
 170 769 170 769 402 769 c 0,40,41
 457 769 457 769 506.5 757.5 c 128,-1,42
 556 746 556 746 597 734 c 1,43,-1
 597 672 l 1,0,1
EndSplineSet
EndChar

StartChar: ff
Encoding: 64256 64256 209
Width: 646
Flags: W
LayerCount: 2
Fore
SplineSet
492 38 m 1,0,-1
 575 20 l 1,1,-1
 575 0 l 1,2,-1
 347 0 l 1,3,-1
 347 21 l 1,4,-1
 427 40 l 1,5,-1
 429 473 l 1,6,-1
 343 473 l 1,7,-1
 343 516 l 1,8,-1
 429 516 l 1,9,10
 430 689 430 689 348 717 c 0,11,12
 322 726 322 726 287 726 c 0,13,14
 226 726 226 726 192.5 681 c 128,-1,15
 159 636 159 636 159 562 c 2,16,-1
 159 516 l 1,17,-1
 257 516 l 1,18,-1
 257 473 l 1,19,-1
 159 473 l 1,20,-1
 159 -173 l 1,21,-1
 242 -189 l 1,22,-1
 242 -211 l 1,23,-1
 14 -211 l 1,24,-1
 14 -190 l 1,25,-1
 94 -173 l 1,26,-1
 96 473 l 1,27,-1
 10 473 l 1,28,-1
 10 516 l 1,29,-1
 96 516 l 1,30,-1
 96 562 l 2,31,32
 96 673 96 673 147.5 725.5 c 128,-1,33
 199 778 199 778 288 778 c 0,34,35
 411 778 411 778 446 695 c 1,36,37
 492 765 492 765 579 775 c 0,38,39
 604 778 604 778 628 778 c 0,40,41
 674 778 674 778 739 747 c 1,42,43
 735 691 735 691 731 639 c 1,44,-1
 711 639 l 1,45,-1
 693 716 l 1,46,47
 653 726 653 726 615 726 c 128,-1,48
 577 726 577 726 549 714 c 128,-1,49
 521 702 521 702 508.5 680 c 128,-1,50
 496 658 496 658 494 628 c 128,-1,51
 492 598 492 598 492 562 c 2,52,-1
 492 516 l 1,53,-1
 621 516 l 1,54,-1
 621 473 l 1,55,-1
 492 473 l 1,56,-1
 492 38 l 1,0,-1
EndSplineSet
EndChar

StartChar: fi
Encoding: 64257 64257 210
Width: 626
Flags: W
LayerCount: 2
Fore
SplineSet
640 20 m 1,0,-1
 640 0 l 1,1,-1
 414 0 l 1,2,-1
 414 20 l 1,3,-1
 493 36 l 1,4,-1
 493 474 l 1,5,-1
 175 474 l 1,6,-1
 175 37 l 1,7,-1
 258 20 l 1,8,-1
 258 0 l 1,9,-1
 31 0 l 1,10,-1
 31 20 l 1,11,-1
 111 36 l 1,12,-1
 111 474 l 1,13,-1
 32 474 l 1,14,-1
 32 517 l 1,15,-1
 111 517 l 1,16,-1
 111 610 l 2,17,18
 111 712 111 712 164 766 c 128,-1,19
 217 820 217 820 295.5 820 c 128,-1,20
 374 820 374 820 438 788 c 0,21,22
 456 779 456 779 474 770 c 1,23,-1
 474 805 l 1,24,-1
 562 805 l 1,25,-1
 562 716 l 1,26,-1
 461 716 l 1,27,28
 415 754 415 754 350 772 c 0,29,30
 329 778 329 778 300 778 c 0,31,32
 270 778 270 778 244 761 c 0,33,34
 174 716 174 716 174 606 c 2,35,-1
 174 517 l 1,36,-1
 562 517 l 1,37,-1
 562 37 l 1,38,-1
 640 20 l 1,0,-1
EndSplineSet
EndChar

StartChar: fl
Encoding: 64258 64258 211
Width: 622
Flags: W
LayerCount: 2
Fore
SplineSet
558 40 m 1,0,-1
 637 21 l 1,1,-1
 637 0 l 1,2,-1
 411 0 l 1,3,-1
 411 21 l 1,4,-1
 489 40 l 1,5,-1
 489 635 l 2,6,7
 489 702 489 702 441 736 c 0,8,9
 393 771 393 771 318 771 c 1,10,11
 208 768 208 768 190 671 c 0,12,13
 184 642 184 642 185 608 c 1,14,-1
 185 519 l 1,15,-1
 312 519 l 1,16,-1
 312 475 l 1,17,-1
 185 475 l 1,18,-1
 185 40 l 1,19,-1
 266 21 l 1,20,-1
 266 0 l 1,21,-1
 39 0 l 1,22,-1
 39 21 l 1,23,-1
 118 40 l 1,24,-1
 118 475 l 1,25,-1
 30 475 l 1,26,-1
 30 519 l 1,27,-1
 118 519 l 1,28,-1
 118 608 l 2,29,30
 118 784 118 784 232 814 c 0,31,32
 268 824 268 824 310 823 c 0,33,34
 478 822 478 822 536 730 c 0,35,36
 558 694 558 694 558 635 c 2,37,-1
 558 40 l 1,0,-1
EndSplineSet
EndChar

StartChar: st
Encoding: 64262 64262 212
Width: 852
Flags: W
LayerCount: 2
Fore
SplineSet
628 517 m 1,0,1
 684 668 684 668 684 712 c 128,-1,2
 684 756 684 756 666 772.5 c 128,-1,3
 648 789 648 789 612 789 c 0,4,5
 544 789 544 789 495 707 c 128,-1,6
 446 625 446 625 428 488 c 1,7,8
 427 462 427 462 425.5 434.5 c 128,-1,9
 424 407 424 407 423 381 c 1,10,-1
 402 381 l 1,11,-1
 384 455 l 1,12,13
 322 486 322 486 239 486 c 0,14,15
 191 486 191 486 171 473 c 0,16,17
 132 449 132 449 132 399.5 c 128,-1,18
 132 350 132 350 158.5 332.5 c 128,-1,19
 185 315 185 315 250 299 c 1,20,21
 359 275 359 275 410.5 239.5 c 128,-1,22
 462 204 462 204 462 136 c 128,-1,23
 462 68 462 68 407 26.5 c 128,-1,24
 352 -15 352 -15 262 -15 c 0,25,26
 170 -16 170 -16 84 22 c 0,27,28
 64 30 64 30 55 37 c 1,29,-1
 55 42 l 1,30,-1
 61 152 l 1,31,-1
 83 152 l 1,32,-1
 100 80 l 1,33,34
 195 35 195 35 260 35 c 0,35,36
 394 35 394 35 394 140 c 0,37,38
 394 202 394 202 274 234 c 0,39,40
 240 244 240 244 203 252 c 1,41,42
 61 293 61 293 61 395 c 1,43,44
 60 476 60 476 146 513 c 0,45,46
 180 528 180 528 246 528 c 128,-1,47
 312 528 312 528 388 502 c 1,48,49
 414 710 414 710 518 796 c 0,50,51
 558 828 558 828 613 829 c 1,52,53
 739 829 739 829 739 700 c 0,54,55
 739 635 739 635 708 546 c 0,56,57
 701 526 701 526 698 517 c 1,58,-1
 832 517 l 1,59,-1
 832 474 l 1,60,-1
 698 474 l 1,61,-1
 698 139 l 2,62,63
 698 72 698 72 706 58 c 128,-1,64
 714 44 714 44 725.5 40.5 c 128,-1,65
 737 37 737 37 763 37 c 128,-1,66
 789 37 789 37 829 54 c 1,67,-1
 829 1 l 1,68,69
 783 -12 783 -12 745 -12 c 0,70,71
 706 -12 706 -12 688 -8 c 0,72,73
 632 6 632 6 632 104 c 2,74,-1
 632 474 l 1,75,-1
 531 474 l 1,76,-1
 531 517 l 1,77,-1
 628 517 l 1,0,1
EndSplineSet
EndChar

StartChar: ti
Encoding: 65539 -1 213
Width: 570
Flags: W
LayerCount: 2
Fore
SplineSet
324 36 m 0,0,1
 370 36 370 36 421 44 c 1,2,-1
 421 477 l 1,3,-1
 341 496 l 1,4,-1
 341 517 l 1,5,-1
 489 517 l 1,6,-1
 491 40 l 1,7,-1
 569 21 l 1,8,-1
 569 0 l 1,9,10
 498 -2 498 -2 431.5 -8.5 c 128,-1,11
 365 -15 365 -15 319 -15 c 0,12,13
 228 -15 228 -15 176 8 c 0,14,15
 106 39 106 39 106 103 c 2,16,-1
 106 474 l 1,17,-1
 5 474 l 1,18,-1
 5 517 l 1,19,-1
 105 517 l 1,20,-1
 110 553 l 2,21,22
 112 573 112 573 117 612.5 c 128,-1,23
 122 652 122 652 125 671 c 1,24,-1
 172 671 l 1,25,-1
 172 138 l 2,26,27
 172 36 172 36 324 36 c 0,0,1
405 710 m 1,28,-1
 405 795 l 1,29,-1
 489 795 l 1,30,-1
 489 710 l 1,31,-1
 405 710 l 1,28,-1
EndSplineSet
EndChar

StartChar: th
Encoding: 65540 -1 214
Width: 933
Flags: W
LayerCount: 2
Fore
SplineSet
424 756 m 1,0,1
 355 772 355 772 345 775 c 1,2,-1
 345 796 l 1,3,-1
 490 796 l 1,4,-1
 490 423 l 1,5,6
 552 480 552 480 585 497 c 0,7,8
 646 529 646 529 711 529 c 128,-1,9
 776 529 776 529 813.5 479.5 c 128,-1,10
 851 430 851 430 851 338 c 0,11,12
 851 325 851 325 850 312 c 1,13,-1
 850 40 l 1,14,-1
 934 21 l 1,15,-1
 934 0 l 1,16,-1
 706 0 l 1,17,-1
 706 21 l 1,18,-1
 785 40 l 1,19,-1
 786 319 l 2,20,21
 786 432 786 432 727 469 c 0,22,23
 706 482 706 482 670 482 c 128,-1,24
 634 482 634 482 599 468 c 128,-1,25
 564 454 564 454 539 433 c 128,-1,26
 514 412 514 412 500 386.5 c 128,-1,27
 486 361 486 361 486 338 c 2,28,-1
 488 6 l 1,29,30
 455 -5 455 -5 394.5 -10 c 128,-1,31
 334 -15 334 -15 305 -15 c 0,32,33
 232 -15 232 -15 180 8 c 0,34,35
 110 39 110 39 110 103 c 2,36,-1
 110 474 l 1,37,-1
 8 474 l 1,38,-1
 8 517 l 1,39,-1
 109 517 l 1,40,-1
 128 671 l 1,41,-1
 174 671 l 1,42,-1
 174 517 l 1,43,-1
 308 517 l 1,44,-1
 308 474 l 1,45,-1
 174 474 l 1,46,-1
 174 138 l 2,47,48
 174 100 174 100 193 79 c 128,-1,49
 212 58 212 58 241.5 47 c 128,-1,50
 271 36 271 36 309 36 c 0,51,52
 365 36 365 36 394.5 49.5 c 128,-1,53
 424 63 424 63 424 78 c 2,54,-1
 424 756 l 1,0,1
EndSplineSet
EndChar

StartChar: ck
Encoding: 65541 -1 215
Width: 1099
Flags: W
LayerCount: 2
Fore
SplineSet
631 755 m 1,0,1
 555 773 555 773 551 774 c 1,2,-1
 551 795 l 1,3,-1
 700 795 l 1,4,-1
 699 400 l 1,5,6
 733 471 733 471 794.5 510.5 c 128,-1,7
 856 550 856 550 918.5 550 c 128,-1,8
 981 550 981 550 1019.5 509.5 c 128,-1,9
 1058 469 1058 469 1058 412 c 0,10,11
 1058 306 1058 306 905 200 c 1,12,-1
 1030 37 l 1,13,-1
 1099 20 l 1,14,-1
 1099 0 l 1,15,-1
 871 0 l 1,16,-1
 871 21 l 1,17,-1
 948 37 l 1,18,-1
 845 169 l 1,19,20
 809 152 809 152 787 143 c 1,21,-1
 785 196 l 1,22,23
 921 256 921 256 976 336 c 0,24,25
 997 366 997 366 997 405 c 128,-1,26
 997 444 997 444 969.5 471.5 c 128,-1,27
 942 499 942 499 905.5 499 c 128,-1,28
 869 499 869 499 834 482 c 128,-1,29
 799 465 799 465 769.5 437 c 128,-1,30
 740 409 740 409 720 372.5 c 128,-1,31
 700 336 700 336 699 298 c 1,32,-1
 699 164 l 1,33,34
 676 142 676 142 641 111 c 128,-1,35
 606 80 606 80 559 52 c 1,36,37
 376 -16 376 -16 324 -16 c 0,38,39
 321 -16 321 -16 317 -16 c 0,40,41
 190 -16 190 -16 120 52.5 c 128,-1,42
 50 121 50 121 50 263 c 0,43,44
 50 476 50 476 208 518 c 0,45,46
 258 532 258 532 323 532 c 0,47,48
 417 532 417 532 486 490 c 1,49,-1
 478 385 l 1,50,-1
 457 385 l 1,51,-1
 440 457 l 1,52,53
 370 486 370 486 327 486 c 0,54,55
 230 486 230 486 182 445 c 0,56,57
 120 392 120 392 120 265 c 0,58,59
 120 72 120 72 245 40 c 0,60,61
 282 30 282 30 324 30 c 128,-1,62
 366 30 366 30 408 44.5 c 128,-1,63
 450 59 450 59 489.5 81 c 128,-1,64
 529 103 529 103 564.5 129 c 128,-1,65
 600 155 600 155 631 178 c 1,66,-1
 631 755 l 1,0,1
EndSplineSet
EndChar

StartChar: mm
Encoding: 65542 -1 216
Width: 1447
Flags: W
LayerCount: 2
Fore
SplineSet
1240 533 m 0,0,1
 1363 533 1363 533 1363 324 c 2,2,-1
 1364 41 l 1,3,-1
 1447 22 l 1,4,-1
 1447 0 l 1,5,-1
 1301 0 l 1,6,-1
 1301 330 l 2,7,8
 1301 409 1301 409 1288.5 435.5 c 128,-1,9
 1276 462 1276 462 1257.5 473 c 128,-1,10
 1239 484 1239 484 1205 484 c 0,11,12
 1139 484 1139 484 1101 435.5 c 128,-1,13
 1063 387 1063 387 1063 320 c 2,14,-1
 1063 40 l 1,15,-1
 1141 21 l 1,16,-1
 1141 0 l 1,17,-1
 994 0 l 1,18,-1
 994 320 l 2,19,20
 994 399 994 399 976 441.5 c 128,-1,21
 958 484 958 484 904 484 c 0,22,23
 833 484 833 484 795 434 c 128,-1,24
 757 384 757 384 757 322 c 2,25,-1
 759 41 l 1,26,-1
 842 22 l 1,27,-1
 842 0 l 1,28,-1
 696 0 l 1,29,-1
 696 330 l 2,30,31
 696 410 696 410 683 436 c 128,-1,32
 670 462 670 462 651.5 473 c 128,-1,33
 633 484 633 484 599 484 c 0,34,35
 532 484 532 484 495 435.5 c 128,-1,36
 458 387 458 387 458 320 c 2,37,-1
 458 40 l 1,38,-1
 536 21 l 1,39,-1
 536 0 l 1,40,-1
 390 0 l 1,41,-1
 390 320 l 2,42,43
 390 401 390 401 371.5 442.5 c 128,-1,44
 353 484 353 484 300 484 c 0,45,46
 230 484 230 484 191.5 434 c 128,-1,47
 153 384 153 384 153 320 c 2,48,-1
 153 41 l 1,49,-1
 235 22 l 1,50,-1
 235 0 l 1,51,-1
 7 0 l 1,52,-1
 7 21 l 1,53,-1
 87 38 l 1,54,-1
 87 477 l 1,55,-1
 7 496 l 1,56,-1
 7 517 l 1,57,-1
 147 517 l 1,58,-1
 158 412 l 1,59,60
 194 493 194 493 281 524 c 0,61,62
 306 533 306 533 327 533 c 0,63,64
 371 533 371 533 403 502 c 128,-1,65
 435 471 435 471 446 413 c 1,66,67
 477 470 477 470 526 501.5 c 128,-1,68
 575 533 575 533 635 533 c 0,69,70
 721 533 721 533 756 408 c 1,71,72
 780 465 780 465 831 499 c 128,-1,73
 882 533 882 533 927 533 c 128,-1,74
 972 533 972 533 1003.5 507.5 c 128,-1,75
 1035 482 1035 482 1052 415 c 1,76,77
 1080 472 1080 472 1130 502.5 c 128,-1,78
 1180 533 1180 533 1240 533 c 0,0,1
EndSplineSet
EndChar

StartChar: oo
Encoding: 65543 -1 217
Width: 984
Flags: W
LayerCount: 2
Fore
SplineSet
703 533 m 0,0,1
 951 533 951 533 951 261 c 0,2,3
 951 120 951 120 897.5 51.5 c 128,-1,4
 844 -17 844 -17 717.5 -17 c 128,-1,5
 591 -17 591 -17 508 80 c 1,6,7
 428 -17 428 -17 298 -17 c 1,8,9
 170 -18 170 -18 107 66 c 0,10,11
 53 138 53 138 53 267.5 c 128,-1,12
 53 397 53 397 107.5 465 c 128,-1,13
 162 533 162 533 289 533 c 128,-1,14
 416 533 416 533 498 437 c 1,15,16
 580 533 580 533 703 533 c 0,0,1
139 393 m 128,-1,18
 123 347 123 347 123 263 c 128,-1,19
 123 179 123 179 140 132.5 c 128,-1,20
 157 86 157 86 183.5 63 c 128,-1,21
 210 40 210 40 240.5 34.5 c 128,-1,22
 271 29 271 29 295 29 c 128,-1,23
 319 29 319 29 349 33 c 0,24,25
 379 36 379 36 406 58 c 0,26,27
 471 110 471 110 471 259 c 0,28,29
 472 408 472 408 406 458 c 0,30,31
 378 479 378 479 347 483 c 128,-1,32
 316 487 316 487 290 487 c 128,-1,33
 264 487 264 487 234.5 484 c 128,-1,34
 205 481 205 481 180 460 c 128,-1,17
 155 439 155 439 139 393 c 128,-1,18
566 96 m 0,35,36
 610 28 610 28 712 29 c 0,37,38
 734 29 734 29 762 33 c 0,39,40
 789 36 789 36 814 58 c 0,41,42
 873 109 873 109 873 259 c 0,43,44
 874 409 874 409 814 458 c 0,45,46
 788 479 788 479 758 483 c 128,-1,47
 728 487 728 487 687.5 487 c 128,-1,48
 647 487 647 487 612.5 468.5 c 128,-1,49
 578 450 578 450 560 418 c 0,50,51
 530 366 530 366 530 259 c 128,-1,52
 530 152 530 152 566 96 c 0,35,36
EndSplineSet
EndChar

StartChar: rt
Encoding: 65544 -1 218
Width: 717
Flags: W
LayerCount: 2
Fore
SplineSet
688 3 m 1,0,1
 640 -12 640 -12 603 -12 c 128,-1,2
 566 -12 566 -12 548 -8 c 0,3,4
 492 6 492 6 491 104 c 1,5,-1
 491 536 l 1,6,-1
 510 671 l 1,7,-1
 556 671 l 1,8,-1
 556 517 l 1,9,-1
 690 517 l 1,10,-1
 690 474 l 1,11,-1
 556 474 l 1,12,-1
 556 139 l 2,13,14
 556 72 556 72 564 58 c 128,-1,15
 572 44 572 44 583.5 40.5 c 128,-1,16
 595 37 595 37 625.5 37 c 128,-1,17
 656 37 656 37 688 55 c 1,18,-1
 688 3 l 1,0,1
258 525 m 0,19,20
 279 532 279 532 315 532 c 128,-1,21
 351 532 351 532 381 517 c 1,22,-1
 373 398 l 1,23,-1
 351 398 l 1,24,-1
 333 477 l 1,25,26
 312 480 312 480 293 480 c 0,27,28
 234 480 234 480 203 446 c 0,29,30
 154 392 154 392 154 249 c 2,31,-1
 154 38 l 1,32,-1
 230 21 l 1,33,-1
 230 0 l 1,34,-1
 12 0 l 1,35,-1
 12 21 l 1,36,-1
 87 38 l 1,37,-1
 87 477 l 1,38,-1
 8 496 l 1,39,-1
 8 517 l 1,40,-1
 140 517 l 1,41,-1
 155 404 l 1,42,43
 185 501 185 501 258 525 c 0,19,20
EndSplineSet
EndChar

StartChar: periodcentered
Encoding: 65545 -1 219
Width: 290
Flags: W
LayerCount: 2
Fore
SplineSet
106 391 m 1,0,-1
 191 391 l 1,1,-1
 191 306 l 1,2,-1
 106 306 l 1,3,-1
 106 391 l 1,0,-1
EndSplineSet
EndChar

StartChar: tt
Encoding: 65546 -1 220
Width: 653
Flags: W
LayerCount: 2
Fore
SplineSet
537 -12 m 0,0,1
 455 -12 455 -12 433 28 c 1,2,3
 382 -15 382 -15 304 -15 c 0,4,5
 277 -15 277 -15 243.5 -13.5 c 128,-1,6
 210 -12 210 -12 180 2 c 0,7,8
 110 34 110 34 110 138 c 2,9,-1
 110 473 l 1,10,-1
 9 473 l 1,11,-1
 9 516 l 1,12,-1
 109 516 l 1,13,-1
 130 671 l 1,14,-1
 175 671 l 1,15,-1
 175 138 l 2,16,17
 175 69 175 69 231 47 c 0,18,19
 259 36 259 36 302 36 c 128,-1,20
 345 36 345 36 372.5 47.5 c 128,-1,21
 400 59 400 59 413.5 70.5 c 128,-1,22
 427 82 427 82 427 97 c 2,23,-1
 427 474 l 1,24,-1
 245 474 l 1,25,-1
 245 517 l 1,26,-1
 425 517 l 1,27,28
 441 650 441 650 445 672 c 1,29,-1
 491 672 l 1,30,-1
 491 517 l 1,31,-1
 624 517 l 1,32,-1
 624 474 l 1,33,-1
 491 474 l 1,34,-1
 491 139 l 2,35,36
 491 72 491 72 499 58 c 128,-1,37
 507 44 507 44 518.5 40.5 c 128,-1,38
 530 37 530 37 561.5 37 c 128,-1,39
 593 37 593 37 622 54 c 1,40,-1
 622 3 l 1,41,42
 557 -12 557 -12 537 -12 c 0,0,1
EndSplineSet
EndChar

StartChar: Wh
Encoding: 65547 -1 221
Width: 1701
Flags: W
LayerCount: 2
Fore
SplineSet
1265 39 m 1,0,-1
 1347 21 l 1,1,-1
 1347 0 l 1,2,-1
 1121 0 l 1,3,-1
 1121 22 l 1,4,-1
 1200 38 l 1,5,-1
 1200 618 l 2,6,7
 1200 694 1200 694 1185.5 729 c 128,-1,8
 1171 764 1171 764 1131 764 c 0,9,10
 1113 764 1113 764 1097.5 755 c 128,-1,11
 1082 746 1082 746 1060 708 c 128,-1,12
 1038 670 1038 670 986 511 c 2,13,-1
 818 0 l 1,14,-1
 716 0 l 1,15,-1
 565 645 l 1,16,-1
 546 645 l 1,17,-1
 392 0 l 1,18,-1
 297 0 l 1,19,-1
 48 679 l 1,20,-1
 -23 696 l 1,21,-1
 -23 716 l 1,22,-1
 200 716 l 1,23,-1
 200 695 l 1,24,-1
 130 680 l 1,25,-1
 346 50 l 1,26,-1
 514 716 l 1,27,-1
 599 716 l 1,28,-1
 765 45 l 1,29,-1
 909 515 l 1,30,31
 990 764 990 764 1076 792 c 0,32,33
 1102 800 1102 800 1131 801 c 1,34,35
 1197 801 1197 801 1231 765.5 c 128,-1,36
 1265 730 1265 730 1265 642 c 2,37,-1
 1265 406 l 1,38,39
 1291 455 1291 455 1348 490 c 1,40,41
 1404 526 1404 526 1464 526 c 0,42,43
 1576 526 1576 526 1610 405 c 0,44,45
 1622 364 1622 364 1622 309 c 2,46,-1
 1621 39 l 1,47,-1
 1701 22 l 1,48,-1
 1701 0 l 1,49,-1
 1478 0 l 1,50,-1
 1478 21 l 1,51,-1
 1556 39 l 1,52,-1
 1558 316 l 2,53,54
 1558 392 1558 392 1526 434 c 128,-1,55
 1494 476 1494 476 1431 476 c 128,-1,56
 1368 476 1368 476 1316.5 430 c 128,-1,57
 1265 384 1265 384 1265 326 c 2,58,-1
 1265 39 l 1,0,-1
EndSplineSet
EndChar

StartChar: wh
Encoding: 65548 -1 222
Width: 1357
Flags: W
LayerCount: 2
Fore
SplineSet
849 742 m 1,0,1
 733 784 733 784 646 784 c 0,2,3
 590 784 590 784 556 763.5 c 128,-1,4
 522 743 522 743 522 687 c 128,-1,5
 522 631 522 631 568 582 c 0,6,7
 624 523 624 523 726 517 c 1,8,-1
 609 0 l 1,9,-1
 527 0 l 1,10,-1
 403 485 l 1,11,-1
 260 0 l 1,12,-1
 178 0 l 1,13,-1
 54 480 l 1,14,-1
 -23 494 l 1,15,-1
 -23 517 l 1,16,-1
 204 517 l 1,17,-1
 204 494 l 1,18,-1
 117 479 l 1,19,-1
 223 50 l 1,20,-1
 369 517 l 1,21,-1
 436 517 l 1,22,-1
 563 49 l 1,23,-1
 651 476 l 1,24,25
 643 477 643 477 615.5 491.5 c 128,-1,26
 588 506 588 506 558 534 c 0,27,28
 482 605 482 605 482 698 c 0,29,30
 482 813 482 813 643 813 c 0,31,32
 717 813 717 813 791.5 801.5 c 128,-1,33
 866 790 866 790 890 784 c 2,34,-1
 914 779 l 1,35,-1
 915 412 l 1,36,37
 941 460 941 460 998 497 c 0,38,39
 1055 533 1055 533 1121 533 c 128,-1,40
 1187 533 1187 533 1231.5 479.5 c 128,-1,41
 1276 426 1276 426 1276 313 c 2,42,-1
 1276 40 l 1,43,-1
 1356 22 l 1,44,-1
 1356 0 l 1,45,-1
 1130 0 l 1,46,-1
 1130 21 l 1,47,-1
 1211 40 l 1,48,-1
 1211 320 l 2,49,50
 1211 397 1211 397 1178.5 440 c 128,-1,51
 1146 483 1146 483 1082 483 c 128,-1,52
 1018 483 1018 483 966.5 437 c 128,-1,53
 915 391 915 391 915 331 c 2,54,-1
 915 40 l 1,55,-1
 997 21 l 1,56,-1
 997 0 l 1,57,-1
 769 0 l 1,58,-1
 769 22 l 1,59,-1
 849 38 l 1,60,-1
 849 742 l 1,0,1
EndSplineSet
EndChar

StartChar: St
Encoding: 65549 -1 223
Width: 943
Flags: W
LayerCount: 2
Fore
SplineSet
920 1 m 1,0,1
 874 -12 874 -12 836.5 -12 c 128,-1,2
 799 -12 799 -12 781 -8 c 0,3,4
 725 6 725 6 725 103 c 2,5,-1
 725 475 l 1,6,-1
 626 475 l 1,7,-1
 626 517 l 1,8,-1
 727 517 l 1,9,10
 781 664 781 664 781 717 c 0,11,12
 781 788 781 788 702 788 c 0,13,14
 648 788 648 788 597.5 747 c 128,-1,15
 547 706 547 706 532 625 c 1,16,-1
 530 584 l 1,17,-1
 508 584 l 1,18,-1
 492 656 l 1,19,20
 407 692 407 692 316 692 c 0,21,22
 242 692 242 692 192 653 c 128,-1,23
 142 614 142 614 142 550 c 0,24,25
 142 488 142 488 179.5 457 c 128,-1,26
 217 426 217 426 279 408 c 128,-1,27
 341 390 341 390 387 374 c 1,28,29
 434 356 434 356 472 330 c 0,30,31
 562 268 562 268 561.5 167 c 128,-1,32
 561 66 561 66 462 16 c 0,33,34
 390 -20 390 -20 290 -20 c 0,35,36
 148 -20 148 -20 64 38 c 1,37,-1
 64 154 l 1,38,-1
 84 154 l 1,39,-1
 100 82 l 1,40,41
 192 28 192 28 282 28 c 128,-1,42
 372 28 372 28 428.5 69.5 c 128,-1,43
 485 111 485 111 485 166.5 c 128,-1,44
 485 222 485 222 463 250 c 0,45,46
 416 311 416 311 303 341 c 1,47,48
 182 375 182 375 123 422.5 c 128,-1,49
 64 470 64 470 64 548 c 128,-1,50
 64 626 64 626 130.5 678.5 c 128,-1,51
 197 731 197 731 316 731 c 128,-1,52
 435 731 435 731 505 706 c 1,53,54
 555 786 555 786 636 816 c 0,55,56
 668 828 668 828 707 828 c 0,57,58
 831 828 831 828 831 701 c 1,59,60
 830 624 830 624 796 534 c 1,61,-1
 790 517 l 1,62,-1
 923 517 l 1,63,-1
 923 475 l 1,64,-1
 790 475 l 1,65,-1
 790 138 l 2,66,67
 790 72 790 72 798 58 c 128,-1,68
 806 44 806 44 817.5 40.5 c 128,-1,69
 829 37 829 37 856 37 c 128,-1,70
 883 37 883 37 920 53 c 1,71,-1
 920 1 l 1,0,1
EndSplineSet
EndChar

StartChar: ch
Encoding: 65550 -1 224
Width: 1146
Flags: W
LayerCount: 2
Fore
SplineSet
213 520 m 0,0,1
 263 534 263 534 324.5 533.5 c 128,-1,2
 386 533 386 533 445 505 c 1,3,-1
 445 623 l 2,4,5
 445 724 445 724 473 766 c 128,-1,6
 501 808 501 808 568 808 c 128,-1,7
 635 808 635 808 670.5 772 c 128,-1,8
 706 736 706 736 706 647 c 2,9,-1
 706 411 l 1,10,11
 757 493 757 493 845 522 c 0,12,13
 875 532 875 532 907 532 c 0,14,15
 978 532 978 532 1022.5 478 c 128,-1,16
 1067 424 1067 424 1067 312 c 2,17,-1
 1067 40 l 1,18,-1
 1147 22 l 1,19,-1
 1147 0 l 1,20,-1
 921 0 l 1,21,-1
 921 21 l 1,22,-1
 1000 40 l 1,23,-1
 1002 319 l 2,24,25
 1002 396 1002 396 970 439 c 128,-1,26
 938 482 938 482 873 482 c 128,-1,27
 808 482 808 482 757 436 c 128,-1,28
 706 390 706 390 706 330 c 2,29,-1
 706 40 l 1,30,-1
 788 21 l 1,31,-1
 788 0 l 1,32,-1
 560 0 l 1,33,-1
 560 22 l 1,34,-1
 640 38 l 1,35,-1
 640 623 l 2,36,37
 640 700 640 700 625 735 c 128,-1,38
 610 770 610 770 570 770 c 128,-1,39
 530 770 530 770 512.5 735.5 c 128,-1,40
 495 701 495 701 492 623 c 2,41,-1
 481 386 l 1,42,-1
 461 386 l 1,43,-1
 444 458 l 1,44,45
 379 487 379 487 333 487 c 128,-1,46
 287 487 287 487 250 479 c 128,-1,47
 213 471 213 471 185 447 c 0,48,49
 123 394 123 394 123 264 c 0,50,51
 124 134 124 134 184 76 c 1,52,53
 232 31 232 31 321 31 c 128,-1,54
 410 31 410 31 502 74 c 1,55,-1
 502 16 l 1,56,57
 363 -15 363 -15 328 -15 c 0,58,59
 327 -15 327 -15 326 -15 c 0,60,61
 191 -15 191 -15 123.5 52.5 c 128,-1,62
 56 120 56 120 56 264 c 0,63,64
 56 478 56 478 213 520 c 0,0,1
EndSplineSet
EndChar

StartChar: Ch
Encoding: 65551 -1 225
Width: 1257
Flags: W
LayerCount: 2
Fore
SplineSet
274 704 m 0,0,1
 342 732 342 732 424 732 c 128,-1,2
 506 732 506 732 587 709 c 1,3,4
 601 760 601 760 628.5 781 c 128,-1,5
 656 802 656 802 701 802 c 0,6,7
 767 802 767 802 801.5 766.5 c 128,-1,8
 836 731 836 731 836 643 c 2,9,-1
 837 409 l 1,10,11
 865 457 865 457 920 492 c 128,-1,12
 975 527 975 527 1035 527 c 0,13,14
 1148 527 1148 527 1182 406 c 0,15,16
 1194 365 1194 365 1193 310 c 1,17,-1
 1193 40 l 1,18,-1
 1272 23 l 1,19,-1
 1272 1 l 1,20,-1
 1049 1 l 1,21,-1
 1049 22 l 1,22,-1
 1127 40 l 1,23,-1
 1127 317 l 2,24,25
 1127 393 1127 393 1096 435 c 128,-1,26
 1065 477 1065 477 1001 477 c 128,-1,27
 937 477 937 477 886.5 430.5 c 128,-1,28
 836 384 836 384 836 327 c 2,29,-1
 836 40 l 1,30,-1
 917 22 l 1,31,-1
 917 1 l 1,32,-1
 692 1 l 1,33,-1
 692 23 l 1,34,-1
 771 39 l 1,35,-1
 771 619 l 2,36,37
 771 695 771 695 756.5 729.5 c 128,-1,38
 742 764 742 764 706 764 c 128,-1,39
 670 764 670 764 646 740 c 128,-1,40
 622 716 622 716 620 665 c 1,41,-1
 613 574 l 1,42,-1
 593 574 l 1,43,-1
 577 659 l 1,44,45
 517 690 517 690 443 690 c 0,46,47
 352 690 352 690 264 620 c 0,48,49
 232 594 232 594 207 557 c 0,50,51
 149 474 149 474 147 356 c 1,52,53
 154 218 154 218 220 136 c 0,54,55
 270 74 270 74 346 48 c 0,56,57
 394 32 394 32 432 31 c 1,58,59
 531 31 531 31 630 109 c 1,60,-1
 630 40 l 1,61,62
 582 8 582 8 496 -12 c 0,63,64
 466 -19 466 -19 432 -20 c 1,65,66
 256 -20 256 -20 160.5 86 c 128,-1,67
 65 192 65 192 65 358 c 0,68,69
 64 525 64 525 158 626 c 0,70,71
 204 676 204 676 274 704 c 0,0,1
EndSplineSet
EndChar
